M48
; DRILL file {KiCad 7.0.5} date Fri Jul  7 14:49:27 2023
; FORMAT={-:-/ absolute / inch / decimal}
; #@! TF.CreationDate,2023-07-07T14:49:27-05:00
; #@! TF.GenerationSoftware,Kicad,Pcbnew,7.0.5
; #@! TF.FileFunction,Plated,1,2,PTH
FMAT,2
INCH
; #@! TA.AperFunction,Plated,PTH,ComponentDrill
T1C0.0079
; #@! TA.AperFunction,Plated,PTH,ViaDrill
T2C0.0157
%
G90
G05
T1
X6.7138Y-2.2037
X6.7138Y-2.2637
X6.7438Y-2.1737
X6.7438Y-2.2337
X6.7438Y-2.2937
X6.7738Y-2.2037
X6.7738Y-2.2637
X6.8039Y-2.1737
X6.8039Y-2.2337
X6.8039Y-2.2937
X6.8339Y-2.2037
X6.8339Y-2.2637
T2
X6.591Y-1.8897
X6.5929Y-1.9226
X6.6535Y-1.7638
X6.7286Y-1.988
X6.9212Y-2.0022
X7.149Y-2.4705
X7.149Y-2.5213
X7.1654Y-1.7244
X7.2946Y-2.0037
X7.3228Y-2.0472
X7.3342Y-1.939
X7.3474Y-2.5541
X7.3776Y-2.0271
X7.3812Y-1.9254
X7.3819Y-1.9603
X7.4016Y-1.7323
X7.4657Y-2.0734
X7.4803Y-1.9685
X7.4963Y-1.7323
X7.5236Y-1.7638
X7.5748Y-1.7323
X7.5804Y-1.9374
X7.6598Y-1.9933
X7.7805Y-1.7504
T0
M30
