%TF.GenerationSoftware,KiCad,Pcbnew,7.0.5*%
%TF.CreationDate,2023-07-07T22:00:18-05:00*%
%TF.ProjectId,leapsd,6c656170-7364-42e6-9b69-6361645f7063,rev?*%
%TF.SameCoordinates,Original*%
%TF.FileFunction,Legend,Top*%
%TF.FilePolarity,Positive*%
%FSLAX46Y46*%
G04 Gerber Fmt 4.6, Leading zero omitted, Abs format (unit mm)*
G04 Created by KiCad (PCBNEW 7.0.5) date 2023-07-07 22:00:18*
%MOMM*%
%LPD*%
G01*
G04 APERTURE LIST*
%ADD10C,0.150000*%
%ADD11C,0.100000*%
%ADD12C,0.120000*%
%ADD13C,0.200000*%
%ADD14C,0.010000*%
G04 APERTURE END LIST*
D10*
X199385655Y-48104761D02*
X199385655Y-47723809D01*
X199385655Y-47723809D02*
X200185655Y-47723809D01*
X199804703Y-48638094D02*
X199804703Y-48371428D01*
X199385655Y-48371428D02*
X200185655Y-48371428D01*
X200185655Y-48371428D02*
X200185655Y-48752380D01*
X199423751Y-49628570D02*
X199385655Y-49742856D01*
X199385655Y-49742856D02*
X199385655Y-49933332D01*
X199385655Y-49933332D02*
X199423751Y-50009523D01*
X199423751Y-50009523D02*
X199461846Y-50047618D01*
X199461846Y-50047618D02*
X199538036Y-50085713D01*
X199538036Y-50085713D02*
X199614227Y-50085713D01*
X199614227Y-50085713D02*
X199690417Y-50047618D01*
X199690417Y-50047618D02*
X199728512Y-50009523D01*
X199728512Y-50009523D02*
X199766608Y-49933332D01*
X199766608Y-49933332D02*
X199804703Y-49780951D01*
X199804703Y-49780951D02*
X199842798Y-49704761D01*
X199842798Y-49704761D02*
X199880893Y-49666666D01*
X199880893Y-49666666D02*
X199957084Y-49628570D01*
X199957084Y-49628570D02*
X200033274Y-49628570D01*
X200033274Y-49628570D02*
X200109465Y-49666666D01*
X200109465Y-49666666D02*
X200147560Y-49704761D01*
X200147560Y-49704761D02*
X200185655Y-49780951D01*
X200185655Y-49780951D02*
X200185655Y-49971428D01*
X200185655Y-49971428D02*
X200147560Y-50085713D01*
X199385655Y-50428571D02*
X200185655Y-50428571D01*
X200185655Y-50428571D02*
X200185655Y-50619047D01*
X200185655Y-50619047D02*
X200147560Y-50733333D01*
X200147560Y-50733333D02*
X200071370Y-50809523D01*
X200071370Y-50809523D02*
X199995179Y-50847618D01*
X199995179Y-50847618D02*
X199842798Y-50885714D01*
X199842798Y-50885714D02*
X199728512Y-50885714D01*
X199728512Y-50885714D02*
X199576131Y-50847618D01*
X199576131Y-50847618D02*
X199499941Y-50809523D01*
X199499941Y-50809523D02*
X199423751Y-50733333D01*
X199423751Y-50733333D02*
X199385655Y-50619047D01*
X199385655Y-50619047D02*
X199385655Y-50428571D01*
X199461846Y-52295238D02*
X199423751Y-52257142D01*
X199423751Y-52257142D02*
X199385655Y-52142857D01*
X199385655Y-52142857D02*
X199385655Y-52066666D01*
X199385655Y-52066666D02*
X199423751Y-51952380D01*
X199423751Y-51952380D02*
X199499941Y-51876190D01*
X199499941Y-51876190D02*
X199576131Y-51838095D01*
X199576131Y-51838095D02*
X199728512Y-51799999D01*
X199728512Y-51799999D02*
X199842798Y-51799999D01*
X199842798Y-51799999D02*
X199995179Y-51838095D01*
X199995179Y-51838095D02*
X200071370Y-51876190D01*
X200071370Y-51876190D02*
X200147560Y-51952380D01*
X200147560Y-51952380D02*
X200185655Y-52066666D01*
X200185655Y-52066666D02*
X200185655Y-52142857D01*
X200185655Y-52142857D02*
X200147560Y-52257142D01*
X200147560Y-52257142D02*
X200109465Y-52295238D01*
X199385655Y-52980952D02*
X199804703Y-52980952D01*
X199804703Y-52980952D02*
X199880893Y-52942857D01*
X199880893Y-52942857D02*
X199918989Y-52866666D01*
X199918989Y-52866666D02*
X199918989Y-52714285D01*
X199918989Y-52714285D02*
X199880893Y-52638095D01*
X199423751Y-52980952D02*
X199385655Y-52904761D01*
X199385655Y-52904761D02*
X199385655Y-52714285D01*
X199385655Y-52714285D02*
X199423751Y-52638095D01*
X199423751Y-52638095D02*
X199499941Y-52599999D01*
X199499941Y-52599999D02*
X199576131Y-52599999D01*
X199576131Y-52599999D02*
X199652322Y-52638095D01*
X199652322Y-52638095D02*
X199690417Y-52714285D01*
X199690417Y-52714285D02*
X199690417Y-52904761D01*
X199690417Y-52904761D02*
X199728512Y-52980952D01*
X199385655Y-53361905D02*
X199918989Y-53361905D01*
X199766608Y-53361905D02*
X199842798Y-53400000D01*
X199842798Y-53400000D02*
X199880893Y-53438095D01*
X199880893Y-53438095D02*
X199918989Y-53514286D01*
X199918989Y-53514286D02*
X199918989Y-53590476D01*
X199385655Y-54200000D02*
X200185655Y-54200000D01*
X199423751Y-54200000D02*
X199385655Y-54123809D01*
X199385655Y-54123809D02*
X199385655Y-53971428D01*
X199385655Y-53971428D02*
X199423751Y-53895238D01*
X199423751Y-53895238D02*
X199461846Y-53857143D01*
X199461846Y-53857143D02*
X199538036Y-53819047D01*
X199538036Y-53819047D02*
X199766608Y-53819047D01*
X199766608Y-53819047D02*
X199842798Y-53857143D01*
X199842798Y-53857143D02*
X199880893Y-53895238D01*
X199880893Y-53895238D02*
X199918989Y-53971428D01*
X199918989Y-53971428D02*
X199918989Y-54123809D01*
X199918989Y-54123809D02*
X199880893Y-54200000D01*
X200223751Y-55152381D02*
X199195179Y-54466667D01*
X200185655Y-55342857D02*
X199385655Y-55533333D01*
X199385655Y-55533333D02*
X199957084Y-55685714D01*
X199957084Y-55685714D02*
X199385655Y-55838095D01*
X199385655Y-55838095D02*
X200185655Y-56028572D01*
X199385655Y-56333334D02*
X199918989Y-56333334D01*
X200185655Y-56333334D02*
X200147560Y-56295238D01*
X200147560Y-56295238D02*
X200109465Y-56333334D01*
X200109465Y-56333334D02*
X200147560Y-56371429D01*
X200147560Y-56371429D02*
X200185655Y-56333334D01*
X200185655Y-56333334D02*
X200109465Y-56333334D01*
X199918989Y-56600000D02*
X199918989Y-56904762D01*
X199385655Y-56714286D02*
X200071370Y-56714286D01*
X200071370Y-56714286D02*
X200147560Y-56752381D01*
X200147560Y-56752381D02*
X200185655Y-56828571D01*
X200185655Y-56828571D02*
X200185655Y-56904762D01*
X199385655Y-57171429D02*
X199918989Y-57171429D01*
X200185655Y-57171429D02*
X200147560Y-57133333D01*
X200147560Y-57133333D02*
X200109465Y-57171429D01*
X200109465Y-57171429D02*
X200147560Y-57209524D01*
X200147560Y-57209524D02*
X200185655Y-57171429D01*
X200185655Y-57171429D02*
X200109465Y-57171429D01*
X199614227Y-58123809D02*
X199614227Y-58504762D01*
X199385655Y-58047619D02*
X200185655Y-58314286D01*
X200185655Y-58314286D02*
X199385655Y-58580952D01*
X199385655Y-59190476D02*
X200185655Y-59190476D01*
X199423751Y-59190476D02*
X199385655Y-59114285D01*
X199385655Y-59114285D02*
X199385655Y-58961904D01*
X199385655Y-58961904D02*
X199423751Y-58885714D01*
X199423751Y-58885714D02*
X199461846Y-58847619D01*
X199461846Y-58847619D02*
X199538036Y-58809523D01*
X199538036Y-58809523D02*
X199766608Y-58809523D01*
X199766608Y-58809523D02*
X199842798Y-58847619D01*
X199842798Y-58847619D02*
X199880893Y-58885714D01*
X199880893Y-58885714D02*
X199918989Y-58961904D01*
X199918989Y-58961904D02*
X199918989Y-59114285D01*
X199918989Y-59114285D02*
X199880893Y-59190476D01*
X199385655Y-59914286D02*
X199804703Y-59914286D01*
X199804703Y-59914286D02*
X199880893Y-59876191D01*
X199880893Y-59876191D02*
X199918989Y-59800000D01*
X199918989Y-59800000D02*
X199918989Y-59647619D01*
X199918989Y-59647619D02*
X199880893Y-59571429D01*
X199423751Y-59914286D02*
X199385655Y-59838095D01*
X199385655Y-59838095D02*
X199385655Y-59647619D01*
X199385655Y-59647619D02*
X199423751Y-59571429D01*
X199423751Y-59571429D02*
X199499941Y-59533333D01*
X199499941Y-59533333D02*
X199576131Y-59533333D01*
X199576131Y-59533333D02*
X199652322Y-59571429D01*
X199652322Y-59571429D02*
X199690417Y-59647619D01*
X199690417Y-59647619D02*
X199690417Y-59838095D01*
X199690417Y-59838095D02*
X199728512Y-59914286D01*
X199918989Y-60295239D02*
X199118989Y-60295239D01*
X199880893Y-60295239D02*
X199918989Y-60371429D01*
X199918989Y-60371429D02*
X199918989Y-60523810D01*
X199918989Y-60523810D02*
X199880893Y-60600001D01*
X199880893Y-60600001D02*
X199842798Y-60638096D01*
X199842798Y-60638096D02*
X199766608Y-60676191D01*
X199766608Y-60676191D02*
X199538036Y-60676191D01*
X199538036Y-60676191D02*
X199461846Y-60638096D01*
X199461846Y-60638096D02*
X199423751Y-60600001D01*
X199423751Y-60600001D02*
X199385655Y-60523810D01*
X199385655Y-60523810D02*
X199385655Y-60371429D01*
X199385655Y-60371429D02*
X199423751Y-60295239D01*
X199918989Y-60904763D02*
X199918989Y-61209525D01*
X200185655Y-61019049D02*
X199499941Y-61019049D01*
X199499941Y-61019049D02*
X199423751Y-61057144D01*
X199423751Y-61057144D02*
X199385655Y-61133334D01*
X199385655Y-61133334D02*
X199385655Y-61209525D01*
X199423751Y-61780954D02*
X199385655Y-61704763D01*
X199385655Y-61704763D02*
X199385655Y-61552382D01*
X199385655Y-61552382D02*
X199423751Y-61476192D01*
X199423751Y-61476192D02*
X199499941Y-61438096D01*
X199499941Y-61438096D02*
X199804703Y-61438096D01*
X199804703Y-61438096D02*
X199880893Y-61476192D01*
X199880893Y-61476192D02*
X199918989Y-61552382D01*
X199918989Y-61552382D02*
X199918989Y-61704763D01*
X199918989Y-61704763D02*
X199880893Y-61780954D01*
X199880893Y-61780954D02*
X199804703Y-61819049D01*
X199804703Y-61819049D02*
X199728512Y-61819049D01*
X199728512Y-61819049D02*
X199652322Y-61438096D01*
X199385655Y-62161906D02*
X199918989Y-62161906D01*
X199766608Y-62161906D02*
X199842798Y-62200001D01*
X199842798Y-62200001D02*
X199880893Y-62238096D01*
X199880893Y-62238096D02*
X199918989Y-62314287D01*
X199918989Y-62314287D02*
X199918989Y-62390477D01*
X198604788Y-49952380D02*
X198566693Y-50066666D01*
X198566693Y-50066666D02*
X198528597Y-50104761D01*
X198528597Y-50104761D02*
X198452407Y-50142857D01*
X198452407Y-50142857D02*
X198338121Y-50142857D01*
X198338121Y-50142857D02*
X198261931Y-50104761D01*
X198261931Y-50104761D02*
X198223836Y-50066666D01*
X198223836Y-50066666D02*
X198185740Y-49990476D01*
X198185740Y-49990476D02*
X198185740Y-49685714D01*
X198185740Y-49685714D02*
X198985740Y-49685714D01*
X198985740Y-49685714D02*
X198985740Y-49952380D01*
X198985740Y-49952380D02*
X198947645Y-50028571D01*
X198947645Y-50028571D02*
X198909550Y-50066666D01*
X198909550Y-50066666D02*
X198833359Y-50104761D01*
X198833359Y-50104761D02*
X198757169Y-50104761D01*
X198757169Y-50104761D02*
X198680978Y-50066666D01*
X198680978Y-50066666D02*
X198642883Y-50028571D01*
X198642883Y-50028571D02*
X198604788Y-49952380D01*
X198604788Y-49952380D02*
X198604788Y-49685714D01*
X198719074Y-50409523D02*
X198185740Y-50599999D01*
X198719074Y-50790476D02*
X198185740Y-50599999D01*
X198185740Y-50599999D02*
X197995264Y-50523809D01*
X197995264Y-50523809D02*
X197957169Y-50485714D01*
X197957169Y-50485714D02*
X197919074Y-50409523D01*
X198185740Y-51704762D02*
X198985740Y-51704762D01*
X198985740Y-51704762D02*
X198985740Y-51895238D01*
X198985740Y-51895238D02*
X198947645Y-52009524D01*
X198947645Y-52009524D02*
X198871455Y-52085714D01*
X198871455Y-52085714D02*
X198795264Y-52123809D01*
X198795264Y-52123809D02*
X198642883Y-52161905D01*
X198642883Y-52161905D02*
X198528597Y-52161905D01*
X198528597Y-52161905D02*
X198376216Y-52123809D01*
X198376216Y-52123809D02*
X198300026Y-52085714D01*
X198300026Y-52085714D02*
X198223836Y-52009524D01*
X198223836Y-52009524D02*
X198185740Y-51895238D01*
X198185740Y-51895238D02*
X198185740Y-51704762D01*
X198261931Y-52961905D02*
X198223836Y-52923809D01*
X198223836Y-52923809D02*
X198185740Y-52809524D01*
X198185740Y-52809524D02*
X198185740Y-52733333D01*
X198185740Y-52733333D02*
X198223836Y-52619047D01*
X198223836Y-52619047D02*
X198300026Y-52542857D01*
X198300026Y-52542857D02*
X198376216Y-52504762D01*
X198376216Y-52504762D02*
X198528597Y-52466666D01*
X198528597Y-52466666D02*
X198642883Y-52466666D01*
X198642883Y-52466666D02*
X198795264Y-52504762D01*
X198795264Y-52504762D02*
X198871455Y-52542857D01*
X198871455Y-52542857D02*
X198947645Y-52619047D01*
X198947645Y-52619047D02*
X198985740Y-52733333D01*
X198985740Y-52733333D02*
X198985740Y-52809524D01*
X198985740Y-52809524D02*
X198947645Y-52923809D01*
X198947645Y-52923809D02*
X198909550Y-52961905D01*
X198604788Y-53571428D02*
X198604788Y-53304762D01*
X198185740Y-53304762D02*
X198985740Y-53304762D01*
X198985740Y-53304762D02*
X198985740Y-53685714D01*
X198985740Y-53990476D02*
X198338121Y-53990476D01*
X198338121Y-53990476D02*
X198261931Y-54028571D01*
X198261931Y-54028571D02*
X198223836Y-54066666D01*
X198223836Y-54066666D02*
X198185740Y-54142857D01*
X198185740Y-54142857D02*
X198185740Y-54295238D01*
X198185740Y-54295238D02*
X198223836Y-54371428D01*
X198223836Y-54371428D02*
X198261931Y-54409523D01*
X198261931Y-54409523D02*
X198338121Y-54447619D01*
X198338121Y-54447619D02*
X198985740Y-54447619D01*
X198185740Y-54828571D02*
X198985740Y-54828571D01*
X198185740Y-55285714D02*
X198642883Y-54942856D01*
X198985740Y-55285714D02*
X198528597Y-54828571D01*
X198223836Y-55590475D02*
X198185740Y-55704761D01*
X198185740Y-55704761D02*
X198185740Y-55895237D01*
X198185740Y-55895237D02*
X198223836Y-55971428D01*
X198223836Y-55971428D02*
X198261931Y-56009523D01*
X198261931Y-56009523D02*
X198338121Y-56047618D01*
X198338121Y-56047618D02*
X198414312Y-56047618D01*
X198414312Y-56047618D02*
X198490502Y-56009523D01*
X198490502Y-56009523D02*
X198528597Y-55971428D01*
X198528597Y-55971428D02*
X198566693Y-55895237D01*
X198566693Y-55895237D02*
X198604788Y-55742856D01*
X198604788Y-55742856D02*
X198642883Y-55666666D01*
X198642883Y-55666666D02*
X198680978Y-55628571D01*
X198680978Y-55628571D02*
X198757169Y-55590475D01*
X198757169Y-55590475D02*
X198833359Y-55590475D01*
X198833359Y-55590475D02*
X198909550Y-55628571D01*
X198909550Y-55628571D02*
X198947645Y-55666666D01*
X198947645Y-55666666D02*
X198985740Y-55742856D01*
X198985740Y-55742856D02*
X198985740Y-55933333D01*
X198985740Y-55933333D02*
X198947645Y-56047618D01*
X198985740Y-56390476D02*
X198338121Y-56390476D01*
X198338121Y-56390476D02*
X198261931Y-56428571D01*
X198261931Y-56428571D02*
X198223836Y-56466666D01*
X198223836Y-56466666D02*
X198185740Y-56542857D01*
X198185740Y-56542857D02*
X198185740Y-56695238D01*
X198185740Y-56695238D02*
X198223836Y-56771428D01*
X198223836Y-56771428D02*
X198261931Y-56809523D01*
X198261931Y-56809523D02*
X198338121Y-56847619D01*
X198338121Y-56847619D02*
X198985740Y-56847619D01*
X198185740Y-57685714D02*
X198566693Y-57419047D01*
X198185740Y-57228571D02*
X198985740Y-57228571D01*
X198985740Y-57228571D02*
X198985740Y-57533333D01*
X198985740Y-57533333D02*
X198947645Y-57609523D01*
X198947645Y-57609523D02*
X198909550Y-57647618D01*
X198909550Y-57647618D02*
X198833359Y-57685714D01*
X198833359Y-57685714D02*
X198719074Y-57685714D01*
X198719074Y-57685714D02*
X198642883Y-57647618D01*
X198642883Y-57647618D02*
X198604788Y-57609523D01*
X198604788Y-57609523D02*
X198566693Y-57533333D01*
X198566693Y-57533333D02*
X198566693Y-57228571D01*
X198185740Y-58028571D02*
X198985740Y-58028571D01*
X198985740Y-58028571D02*
X198414312Y-58295237D01*
X198414312Y-58295237D02*
X198985740Y-58561904D01*
X198985740Y-58561904D02*
X198185740Y-58561904D01*
X198985740Y-59095238D02*
X198985740Y-59247619D01*
X198985740Y-59247619D02*
X198947645Y-59323809D01*
X198947645Y-59323809D02*
X198871455Y-59400000D01*
X198871455Y-59400000D02*
X198719074Y-59438095D01*
X198719074Y-59438095D02*
X198452407Y-59438095D01*
X198452407Y-59438095D02*
X198300026Y-59400000D01*
X198300026Y-59400000D02*
X198223836Y-59323809D01*
X198223836Y-59323809D02*
X198185740Y-59247619D01*
X198185740Y-59247619D02*
X198185740Y-59095238D01*
X198185740Y-59095238D02*
X198223836Y-59019047D01*
X198223836Y-59019047D02*
X198300026Y-58942857D01*
X198300026Y-58942857D02*
X198452407Y-58904761D01*
X198452407Y-58904761D02*
X198719074Y-58904761D01*
X198719074Y-58904761D02*
X198871455Y-58942857D01*
X198871455Y-58942857D02*
X198947645Y-59019047D01*
X198947645Y-59019047D02*
X198985740Y-59095238D01*
X198185740Y-59780952D02*
X198985740Y-59780952D01*
X198985740Y-59780952D02*
X198414312Y-60047618D01*
X198414312Y-60047618D02*
X198985740Y-60314285D01*
X198985740Y-60314285D02*
X198185740Y-60314285D01*
%TO.C,1*%
X159085714Y-43654819D02*
X158514286Y-43654819D01*
X158800000Y-43654819D02*
X158800000Y-42654819D01*
X158800000Y-42654819D02*
X158704762Y-42797676D01*
X158704762Y-42797676D02*
X158609524Y-42892914D01*
X158609524Y-42892914D02*
X158514286Y-42940533D01*
X198390476Y-42254819D02*
X199009523Y-42254819D01*
X199009523Y-42254819D02*
X198676190Y-42635771D01*
X198676190Y-42635771D02*
X198819047Y-42635771D01*
X198819047Y-42635771D02*
X198914285Y-42683390D01*
X198914285Y-42683390D02*
X198961904Y-42731009D01*
X198961904Y-42731009D02*
X199009523Y-42826247D01*
X199009523Y-42826247D02*
X199009523Y-43064342D01*
X199009523Y-43064342D02*
X198961904Y-43159580D01*
X198961904Y-43159580D02*
X198914285Y-43207200D01*
X198914285Y-43207200D02*
X198819047Y-43254819D01*
X198819047Y-43254819D02*
X198533333Y-43254819D01*
X198533333Y-43254819D02*
X198438095Y-43207200D01*
X198438095Y-43207200D02*
X198390476Y-43159580D01*
X199628571Y-42254819D02*
X199723809Y-42254819D01*
X199723809Y-42254819D02*
X199819047Y-42302438D01*
X199819047Y-42302438D02*
X199866666Y-42350057D01*
X199866666Y-42350057D02*
X199914285Y-42445295D01*
X199914285Y-42445295D02*
X199961904Y-42635771D01*
X199961904Y-42635771D02*
X199961904Y-42873866D01*
X199961904Y-42873866D02*
X199914285Y-43064342D01*
X199914285Y-43064342D02*
X199866666Y-43159580D01*
X199866666Y-43159580D02*
X199819047Y-43207200D01*
X199819047Y-43207200D02*
X199723809Y-43254819D01*
X199723809Y-43254819D02*
X199628571Y-43254819D01*
X199628571Y-43254819D02*
X199533333Y-43207200D01*
X199533333Y-43207200D02*
X199485714Y-43159580D01*
X199485714Y-43159580D02*
X199438095Y-43064342D01*
X199438095Y-43064342D02*
X199390476Y-42873866D01*
X199390476Y-42873866D02*
X199390476Y-42635771D01*
X199390476Y-42635771D02*
X199438095Y-42445295D01*
X199438095Y-42445295D02*
X199485714Y-42350057D01*
X199485714Y-42350057D02*
X199533333Y-42302438D01*
X199533333Y-42302438D02*
X199628571Y-42254819D01*
%TO.C,ESP32*%
X164351823Y-52931009D02*
X164685156Y-52931009D01*
X164828013Y-53454819D02*
X164351823Y-53454819D01*
X164351823Y-53454819D02*
X164351823Y-52454819D01*
X164351823Y-52454819D02*
X164828013Y-52454819D01*
X165208966Y-53407200D02*
X165351823Y-53454819D01*
X165351823Y-53454819D02*
X165589918Y-53454819D01*
X165589918Y-53454819D02*
X165685156Y-53407200D01*
X165685156Y-53407200D02*
X165732775Y-53359580D01*
X165732775Y-53359580D02*
X165780394Y-53264342D01*
X165780394Y-53264342D02*
X165780394Y-53169104D01*
X165780394Y-53169104D02*
X165732775Y-53073866D01*
X165732775Y-53073866D02*
X165685156Y-53026247D01*
X165685156Y-53026247D02*
X165589918Y-52978628D01*
X165589918Y-52978628D02*
X165399442Y-52931009D01*
X165399442Y-52931009D02*
X165304204Y-52883390D01*
X165304204Y-52883390D02*
X165256585Y-52835771D01*
X165256585Y-52835771D02*
X165208966Y-52740533D01*
X165208966Y-52740533D02*
X165208966Y-52645295D01*
X165208966Y-52645295D02*
X165256585Y-52550057D01*
X165256585Y-52550057D02*
X165304204Y-52502438D01*
X165304204Y-52502438D02*
X165399442Y-52454819D01*
X165399442Y-52454819D02*
X165637537Y-52454819D01*
X165637537Y-52454819D02*
X165780394Y-52502438D01*
X166208966Y-53454819D02*
X166208966Y-52454819D01*
X166208966Y-52454819D02*
X166589918Y-52454819D01*
X166589918Y-52454819D02*
X166685156Y-52502438D01*
X166685156Y-52502438D02*
X166732775Y-52550057D01*
X166732775Y-52550057D02*
X166780394Y-52645295D01*
X166780394Y-52645295D02*
X166780394Y-52788152D01*
X166780394Y-52788152D02*
X166732775Y-52883390D01*
X166732775Y-52883390D02*
X166685156Y-52931009D01*
X166685156Y-52931009D02*
X166589918Y-52978628D01*
X166589918Y-52978628D02*
X166208966Y-52978628D01*
X167113728Y-52454819D02*
X167732775Y-52454819D01*
X167732775Y-52454819D02*
X167399442Y-52835771D01*
X167399442Y-52835771D02*
X167542299Y-52835771D01*
X167542299Y-52835771D02*
X167637537Y-52883390D01*
X167637537Y-52883390D02*
X167685156Y-52931009D01*
X167685156Y-52931009D02*
X167732775Y-53026247D01*
X167732775Y-53026247D02*
X167732775Y-53264342D01*
X167732775Y-53264342D02*
X167685156Y-53359580D01*
X167685156Y-53359580D02*
X167637537Y-53407200D01*
X167637537Y-53407200D02*
X167542299Y-53454819D01*
X167542299Y-53454819D02*
X167256585Y-53454819D01*
X167256585Y-53454819D02*
X167161347Y-53407200D01*
X167161347Y-53407200D02*
X167113728Y-53359580D01*
X168113728Y-52550057D02*
X168161347Y-52502438D01*
X168161347Y-52502438D02*
X168256585Y-52454819D01*
X168256585Y-52454819D02*
X168494680Y-52454819D01*
X168494680Y-52454819D02*
X168589918Y-52502438D01*
X168589918Y-52502438D02*
X168637537Y-52550057D01*
X168637537Y-52550057D02*
X168685156Y-52645295D01*
X168685156Y-52645295D02*
X168685156Y-52740533D01*
X168685156Y-52740533D02*
X168637537Y-52883390D01*
X168637537Y-52883390D02*
X168066109Y-53454819D01*
X168066109Y-53454819D02*
X168685156Y-53454819D01*
X169113728Y-53073866D02*
X169875633Y-53073866D01*
X170256585Y-52454819D02*
X170494680Y-53454819D01*
X170494680Y-53454819D02*
X170685156Y-52740533D01*
X170685156Y-52740533D02*
X170875632Y-53454819D01*
X170875632Y-53454819D02*
X171113728Y-52454819D01*
X172066108Y-53454819D02*
X171732775Y-52978628D01*
X171494680Y-53454819D02*
X171494680Y-52454819D01*
X171494680Y-52454819D02*
X171875632Y-52454819D01*
X171875632Y-52454819D02*
X171970870Y-52502438D01*
X171970870Y-52502438D02*
X172018489Y-52550057D01*
X172018489Y-52550057D02*
X172066108Y-52645295D01*
X172066108Y-52645295D02*
X172066108Y-52788152D01*
X172066108Y-52788152D02*
X172018489Y-52883390D01*
X172018489Y-52883390D02*
X171970870Y-52931009D01*
X171970870Y-52931009D02*
X171875632Y-52978628D01*
X171875632Y-52978628D02*
X171494680Y-52978628D01*
X172685156Y-52454819D02*
X172875632Y-52454819D01*
X172875632Y-52454819D02*
X172970870Y-52502438D01*
X172970870Y-52502438D02*
X173066108Y-52597676D01*
X173066108Y-52597676D02*
X173113727Y-52788152D01*
X173113727Y-52788152D02*
X173113727Y-53121485D01*
X173113727Y-53121485D02*
X173066108Y-53311961D01*
X173066108Y-53311961D02*
X172970870Y-53407200D01*
X172970870Y-53407200D02*
X172875632Y-53454819D01*
X172875632Y-53454819D02*
X172685156Y-53454819D01*
X172685156Y-53454819D02*
X172589918Y-53407200D01*
X172589918Y-53407200D02*
X172494680Y-53311961D01*
X172494680Y-53311961D02*
X172447061Y-53121485D01*
X172447061Y-53121485D02*
X172447061Y-52788152D01*
X172447061Y-52788152D02*
X172494680Y-52597676D01*
X172494680Y-52597676D02*
X172589918Y-52502438D01*
X172589918Y-52502438D02*
X172685156Y-52454819D01*
X173732775Y-52454819D02*
X173923251Y-52454819D01*
X173923251Y-52454819D02*
X174018489Y-52502438D01*
X174018489Y-52502438D02*
X174113727Y-52597676D01*
X174113727Y-52597676D02*
X174161346Y-52788152D01*
X174161346Y-52788152D02*
X174161346Y-53121485D01*
X174161346Y-53121485D02*
X174113727Y-53311961D01*
X174113727Y-53311961D02*
X174018489Y-53407200D01*
X174018489Y-53407200D02*
X173923251Y-53454819D01*
X173923251Y-53454819D02*
X173732775Y-53454819D01*
X173732775Y-53454819D02*
X173637537Y-53407200D01*
X173637537Y-53407200D02*
X173542299Y-53311961D01*
X173542299Y-53311961D02*
X173494680Y-53121485D01*
X173494680Y-53121485D02*
X173494680Y-52788152D01*
X173494680Y-52788152D02*
X173542299Y-52597676D01*
X173542299Y-52597676D02*
X173637537Y-52502438D01*
X173637537Y-52502438D02*
X173732775Y-52454819D01*
X174589918Y-53454819D02*
X174589918Y-52454819D01*
X174589918Y-52454819D02*
X174923251Y-53169104D01*
X174923251Y-53169104D02*
X175256584Y-52454819D01*
X175256584Y-52454819D02*
X175256584Y-53454819D01*
X175732775Y-53073866D02*
X176494680Y-53073866D01*
X176875632Y-52454819D02*
X177494679Y-52454819D01*
X177494679Y-52454819D02*
X177161346Y-52835771D01*
X177161346Y-52835771D02*
X177304203Y-52835771D01*
X177304203Y-52835771D02*
X177399441Y-52883390D01*
X177399441Y-52883390D02*
X177447060Y-52931009D01*
X177447060Y-52931009D02*
X177494679Y-53026247D01*
X177494679Y-53026247D02*
X177494679Y-53264342D01*
X177494679Y-53264342D02*
X177447060Y-53359580D01*
X177447060Y-53359580D02*
X177399441Y-53407200D01*
X177399441Y-53407200D02*
X177304203Y-53454819D01*
X177304203Y-53454819D02*
X177018489Y-53454819D01*
X177018489Y-53454819D02*
X176923251Y-53407200D01*
X176923251Y-53407200D02*
X176875632Y-53359580D01*
X177875632Y-52550057D02*
X177923251Y-52502438D01*
X177923251Y-52502438D02*
X178018489Y-52454819D01*
X178018489Y-52454819D02*
X178256584Y-52454819D01*
X178256584Y-52454819D02*
X178351822Y-52502438D01*
X178351822Y-52502438D02*
X178399441Y-52550057D01*
X178399441Y-52550057D02*
X178447060Y-52645295D01*
X178447060Y-52645295D02*
X178447060Y-52740533D01*
X178447060Y-52740533D02*
X178399441Y-52883390D01*
X178399441Y-52883390D02*
X177828013Y-53454819D01*
X177828013Y-53454819D02*
X178447060Y-53454819D01*
D11*
%TO.C,REF\u002A\u002A*%
X188381621Y-51739892D02*
X188248288Y-51739892D01*
X188248288Y-51949416D02*
X188248288Y-51549416D01*
X188248288Y-51549416D02*
X188438764Y-51549416D01*
X188572097Y-51930369D02*
X188629240Y-51949416D01*
X188629240Y-51949416D02*
X188724478Y-51949416D01*
X188724478Y-51949416D02*
X188762573Y-51930369D01*
X188762573Y-51930369D02*
X188781621Y-51911321D01*
X188781621Y-51911321D02*
X188800668Y-51873226D01*
X188800668Y-51873226D02*
X188800668Y-51835130D01*
X188800668Y-51835130D02*
X188781621Y-51797035D01*
X188781621Y-51797035D02*
X188762573Y-51777988D01*
X188762573Y-51777988D02*
X188724478Y-51758940D01*
X188724478Y-51758940D02*
X188648287Y-51739892D01*
X188648287Y-51739892D02*
X188610192Y-51720845D01*
X188610192Y-51720845D02*
X188591145Y-51701797D01*
X188591145Y-51701797D02*
X188572097Y-51663702D01*
X188572097Y-51663702D02*
X188572097Y-51625607D01*
X188572097Y-51625607D02*
X188591145Y-51587511D01*
X188591145Y-51587511D02*
X188610192Y-51568464D01*
X188610192Y-51568464D02*
X188648287Y-51549416D01*
X188648287Y-51549416D02*
X188743526Y-51549416D01*
X188743526Y-51549416D02*
X188800668Y-51568464D01*
X188953049Y-51835130D02*
X189143525Y-51835130D01*
X188914954Y-51949416D02*
X189048287Y-51549416D01*
X189048287Y-51549416D02*
X189181620Y-51949416D01*
X189486382Y-51549416D02*
X189410192Y-51549416D01*
X189410192Y-51549416D02*
X189372096Y-51568464D01*
X189372096Y-51568464D02*
X189353049Y-51587511D01*
X189353049Y-51587511D02*
X189314954Y-51644654D01*
X189314954Y-51644654D02*
X189295906Y-51720845D01*
X189295906Y-51720845D02*
X189295906Y-51873226D01*
X189295906Y-51873226D02*
X189314954Y-51911321D01*
X189314954Y-51911321D02*
X189334001Y-51930369D01*
X189334001Y-51930369D02*
X189372096Y-51949416D01*
X189372096Y-51949416D02*
X189448287Y-51949416D01*
X189448287Y-51949416D02*
X189486382Y-51930369D01*
X189486382Y-51930369D02*
X189505430Y-51911321D01*
X189505430Y-51911321D02*
X189524477Y-51873226D01*
X189524477Y-51873226D02*
X189524477Y-51777988D01*
X189524477Y-51777988D02*
X189505430Y-51739892D01*
X189505430Y-51739892D02*
X189486382Y-51720845D01*
X189486382Y-51720845D02*
X189448287Y-51701797D01*
X189448287Y-51701797D02*
X189372096Y-51701797D01*
X189372096Y-51701797D02*
X189334001Y-51720845D01*
X189334001Y-51720845D02*
X189314954Y-51739892D01*
X189314954Y-51739892D02*
X189295906Y-51777988D01*
X189867334Y-51682749D02*
X189867334Y-51949416D01*
X189772096Y-51530369D02*
X189676858Y-51816083D01*
X189676858Y-51816083D02*
X189924477Y-51816083D01*
X190057810Y-51587511D02*
X190076858Y-51568464D01*
X190076858Y-51568464D02*
X190114953Y-51549416D01*
X190114953Y-51549416D02*
X190210191Y-51549416D01*
X190210191Y-51549416D02*
X190248286Y-51568464D01*
X190248286Y-51568464D02*
X190267334Y-51587511D01*
X190267334Y-51587511D02*
X190286381Y-51625607D01*
X190286381Y-51625607D02*
X190286381Y-51663702D01*
X190286381Y-51663702D02*
X190267334Y-51720845D01*
X190267334Y-51720845D02*
X190038762Y-51949416D01*
X190038762Y-51949416D02*
X190286381Y-51949416D01*
X190457810Y-51549416D02*
X190457810Y-51873226D01*
X190457810Y-51873226D02*
X190476857Y-51911321D01*
X190476857Y-51911321D02*
X190495905Y-51930369D01*
X190495905Y-51930369D02*
X190534000Y-51949416D01*
X190534000Y-51949416D02*
X190610191Y-51949416D01*
X190610191Y-51949416D02*
X190648286Y-51930369D01*
X190648286Y-51930369D02*
X190667333Y-51911321D01*
X190667333Y-51911321D02*
X190686381Y-51873226D01*
X190686381Y-51873226D02*
X190686381Y-51549416D01*
X190876858Y-51949416D02*
X190876858Y-51549416D01*
X190876858Y-51549416D02*
X191010191Y-51835130D01*
X191010191Y-51835130D02*
X191143524Y-51549416D01*
X191143524Y-51549416D02*
X191143524Y-51949416D01*
X191295905Y-51549416D02*
X191562572Y-51949416D01*
X191562572Y-51549416D02*
X191295905Y-51949416D01*
D10*
%TO.C,Micro SD*%
X185880952Y-60454819D02*
X185880952Y-59454819D01*
X185880952Y-59454819D02*
X186214285Y-60169104D01*
X186214285Y-60169104D02*
X186547618Y-59454819D01*
X186547618Y-59454819D02*
X186547618Y-60454819D01*
X187023809Y-60454819D02*
X187023809Y-59788152D01*
X187023809Y-59454819D02*
X186976190Y-59502438D01*
X186976190Y-59502438D02*
X187023809Y-59550057D01*
X187023809Y-59550057D02*
X187071428Y-59502438D01*
X187071428Y-59502438D02*
X187023809Y-59454819D01*
X187023809Y-59454819D02*
X187023809Y-59550057D01*
X187928570Y-60407200D02*
X187833332Y-60454819D01*
X187833332Y-60454819D02*
X187642856Y-60454819D01*
X187642856Y-60454819D02*
X187547618Y-60407200D01*
X187547618Y-60407200D02*
X187499999Y-60359580D01*
X187499999Y-60359580D02*
X187452380Y-60264342D01*
X187452380Y-60264342D02*
X187452380Y-59978628D01*
X187452380Y-59978628D02*
X187499999Y-59883390D01*
X187499999Y-59883390D02*
X187547618Y-59835771D01*
X187547618Y-59835771D02*
X187642856Y-59788152D01*
X187642856Y-59788152D02*
X187833332Y-59788152D01*
X187833332Y-59788152D02*
X187928570Y-59835771D01*
X188357142Y-60454819D02*
X188357142Y-59788152D01*
X188357142Y-59978628D02*
X188404761Y-59883390D01*
X188404761Y-59883390D02*
X188452380Y-59835771D01*
X188452380Y-59835771D02*
X188547618Y-59788152D01*
X188547618Y-59788152D02*
X188642856Y-59788152D01*
X189119047Y-60454819D02*
X189023809Y-60407200D01*
X189023809Y-60407200D02*
X188976190Y-60359580D01*
X188976190Y-60359580D02*
X188928571Y-60264342D01*
X188928571Y-60264342D02*
X188928571Y-59978628D01*
X188928571Y-59978628D02*
X188976190Y-59883390D01*
X188976190Y-59883390D02*
X189023809Y-59835771D01*
X189023809Y-59835771D02*
X189119047Y-59788152D01*
X189119047Y-59788152D02*
X189261904Y-59788152D01*
X189261904Y-59788152D02*
X189357142Y-59835771D01*
X189357142Y-59835771D02*
X189404761Y-59883390D01*
X189404761Y-59883390D02*
X189452380Y-59978628D01*
X189452380Y-59978628D02*
X189452380Y-60264342D01*
X189452380Y-60264342D02*
X189404761Y-60359580D01*
X189404761Y-60359580D02*
X189357142Y-60407200D01*
X189357142Y-60407200D02*
X189261904Y-60454819D01*
X189261904Y-60454819D02*
X189119047Y-60454819D01*
X190595238Y-60407200D02*
X190738095Y-60454819D01*
X190738095Y-60454819D02*
X190976190Y-60454819D01*
X190976190Y-60454819D02*
X191071428Y-60407200D01*
X191071428Y-60407200D02*
X191119047Y-60359580D01*
X191119047Y-60359580D02*
X191166666Y-60264342D01*
X191166666Y-60264342D02*
X191166666Y-60169104D01*
X191166666Y-60169104D02*
X191119047Y-60073866D01*
X191119047Y-60073866D02*
X191071428Y-60026247D01*
X191071428Y-60026247D02*
X190976190Y-59978628D01*
X190976190Y-59978628D02*
X190785714Y-59931009D01*
X190785714Y-59931009D02*
X190690476Y-59883390D01*
X190690476Y-59883390D02*
X190642857Y-59835771D01*
X190642857Y-59835771D02*
X190595238Y-59740533D01*
X190595238Y-59740533D02*
X190595238Y-59645295D01*
X190595238Y-59645295D02*
X190642857Y-59550057D01*
X190642857Y-59550057D02*
X190690476Y-59502438D01*
X190690476Y-59502438D02*
X190785714Y-59454819D01*
X190785714Y-59454819D02*
X191023809Y-59454819D01*
X191023809Y-59454819D02*
X191166666Y-59502438D01*
X191595238Y-60454819D02*
X191595238Y-59454819D01*
X191595238Y-59454819D02*
X191833333Y-59454819D01*
X191833333Y-59454819D02*
X191976190Y-59502438D01*
X191976190Y-59502438D02*
X192071428Y-59597676D01*
X192071428Y-59597676D02*
X192119047Y-59692914D01*
X192119047Y-59692914D02*
X192166666Y-59883390D01*
X192166666Y-59883390D02*
X192166666Y-60026247D01*
X192166666Y-60026247D02*
X192119047Y-60216723D01*
X192119047Y-60216723D02*
X192071428Y-60311961D01*
X192071428Y-60311961D02*
X191976190Y-60407200D01*
X191976190Y-60407200D02*
X191833333Y-60454819D01*
X191833333Y-60454819D02*
X191595238Y-60454819D01*
%TO.C,10k*%
X158404761Y-49024819D02*
X157833333Y-49024819D01*
X158119047Y-49024819D02*
X158119047Y-48024819D01*
X158119047Y-48024819D02*
X158023809Y-48167676D01*
X158023809Y-48167676D02*
X157928571Y-48262914D01*
X157928571Y-48262914D02*
X157833333Y-48310533D01*
X159023809Y-48024819D02*
X159119047Y-48024819D01*
X159119047Y-48024819D02*
X159214285Y-48072438D01*
X159214285Y-48072438D02*
X159261904Y-48120057D01*
X159261904Y-48120057D02*
X159309523Y-48215295D01*
X159309523Y-48215295D02*
X159357142Y-48405771D01*
X159357142Y-48405771D02*
X159357142Y-48643866D01*
X159357142Y-48643866D02*
X159309523Y-48834342D01*
X159309523Y-48834342D02*
X159261904Y-48929580D01*
X159261904Y-48929580D02*
X159214285Y-48977200D01*
X159214285Y-48977200D02*
X159119047Y-49024819D01*
X159119047Y-49024819D02*
X159023809Y-49024819D01*
X159023809Y-49024819D02*
X158928571Y-48977200D01*
X158928571Y-48977200D02*
X158880952Y-48929580D01*
X158880952Y-48929580D02*
X158833333Y-48834342D01*
X158833333Y-48834342D02*
X158785714Y-48643866D01*
X158785714Y-48643866D02*
X158785714Y-48405771D01*
X158785714Y-48405771D02*
X158833333Y-48215295D01*
X158833333Y-48215295D02*
X158880952Y-48120057D01*
X158880952Y-48120057D02*
X158928571Y-48072438D01*
X158928571Y-48072438D02*
X159023809Y-48024819D01*
X159785714Y-49024819D02*
X159785714Y-48024819D01*
X159880952Y-48643866D02*
X160166666Y-49024819D01*
X160166666Y-48358152D02*
X159785714Y-48739104D01*
D12*
%TO.C,REF\u002A\u002A*%
X158762742Y-55477500D02*
X159237258Y-55477500D01*
X158762742Y-56522500D02*
X159237258Y-56522500D01*
X158762742Y-57477500D02*
X159237258Y-57477500D01*
X158762742Y-58522500D02*
X159237258Y-58522500D01*
X158762742Y-51477500D02*
X159237258Y-51477500D01*
X158762742Y-52522500D02*
X159237258Y-52522500D01*
X158762742Y-53477500D02*
X159237258Y-53477500D01*
X158762742Y-54522500D02*
X159237258Y-54522500D01*
%TO.C,ESP32*%
X180495632Y-71685971D02*
X180495632Y-65270971D01*
X180495632Y-71685971D02*
X162255632Y-71685971D01*
X180495632Y-65270971D02*
X180875632Y-65270971D01*
X180495632Y-46725971D02*
X180495632Y-45945971D01*
X180495632Y-45945971D02*
X179495632Y-45945971D01*
X162255632Y-71685971D02*
X162255632Y-65270971D01*
X162255632Y-46725971D02*
X162255632Y-45945971D01*
X162255632Y-45945971D02*
X163255632Y-45945971D01*
D13*
%TO.C,REF\u002A\u002A*%
X191100000Y-48000000D02*
G75*
G03*
X191100000Y-48000000I-100000J0D01*
G01*
D12*
%TO.C,Micro SD*%
X195070000Y-65250000D02*
X195070000Y-60800000D01*
X195070000Y-59400000D02*
X195070000Y-57100000D01*
X195070000Y-55700000D02*
X195070000Y-54980000D01*
X195070000Y-54980000D02*
X192390000Y-54980000D01*
X193590000Y-66620000D02*
X192730000Y-66620000D01*
X190090000Y-54980000D02*
X186420000Y-54980000D01*
X184120000Y-54980000D02*
X182890000Y-54980000D01*
X182890000Y-54980000D02*
X182890000Y-64800000D01*
%TO.C,10k*%
X158762742Y-49477500D02*
X159237258Y-49477500D01*
X158762742Y-50522500D02*
X159237258Y-50522500D01*
%TO.C,REF\u002A\u002A*%
D14*
X197986622Y-48250540D02*
X198003970Y-48258122D01*
X198045378Y-48290916D01*
X198080787Y-48338335D01*
X198102686Y-48388939D01*
X198106251Y-48413886D01*
X198094301Y-48448715D01*
X198068089Y-48467145D01*
X198039986Y-48478304D01*
X198027117Y-48480360D01*
X198020851Y-48465437D01*
X198008478Y-48432963D01*
X198003050Y-48418290D01*
X197972612Y-48367532D01*
X197928542Y-48342215D01*
X197872032Y-48342994D01*
X197867847Y-48343991D01*
X197837677Y-48358295D01*
X197815498Y-48386181D01*
X197800349Y-48431075D01*
X197791272Y-48496403D01*
X197787308Y-48585592D01*
X197786936Y-48633049D01*
X197786752Y-48707859D01*
X197785544Y-48758857D01*
X197782331Y-48791259D01*
X197776131Y-48810283D01*
X197765962Y-48821144D01*
X197750841Y-48829060D01*
X197749968Y-48829458D01*
X197720850Y-48841769D01*
X197706425Y-48846302D01*
X197704208Y-48832597D01*
X197702311Y-48794713D01*
X197700869Y-48737503D01*
X197700020Y-48665815D01*
X197699851Y-48613353D01*
X197700714Y-48511835D01*
X197704092Y-48434820D01*
X197711164Y-48377811D01*
X197723110Y-48336314D01*
X197741112Y-48305831D01*
X197766349Y-48281868D01*
X197791269Y-48265143D01*
X197851193Y-48242885D01*
X197920933Y-48237864D01*
X197986622Y-48250540D01*
G36*
X197986622Y-48250540D02*
G01*
X198003970Y-48258122D01*
X198045378Y-48290916D01*
X198080787Y-48338335D01*
X198102686Y-48388939D01*
X198106251Y-48413886D01*
X198094301Y-48448715D01*
X198068089Y-48467145D01*
X198039986Y-48478304D01*
X198027117Y-48480360D01*
X198020851Y-48465437D01*
X198008478Y-48432963D01*
X198003050Y-48418290D01*
X197972612Y-48367532D01*
X197928542Y-48342215D01*
X197872032Y-48342994D01*
X197867847Y-48343991D01*
X197837677Y-48358295D01*
X197815498Y-48386181D01*
X197800349Y-48431075D01*
X197791272Y-48496403D01*
X197787308Y-48585592D01*
X197786936Y-48633049D01*
X197786752Y-48707859D01*
X197785544Y-48758857D01*
X197782331Y-48791259D01*
X197776131Y-48810283D01*
X197765962Y-48821144D01*
X197750841Y-48829060D01*
X197749968Y-48829458D01*
X197720850Y-48841769D01*
X197706425Y-48846302D01*
X197704208Y-48832597D01*
X197702311Y-48794713D01*
X197700869Y-48737503D01*
X197700020Y-48665815D01*
X197699851Y-48613353D01*
X197700714Y-48511835D01*
X197704092Y-48434820D01*
X197711164Y-48377811D01*
X197723110Y-48336314D01*
X197741112Y-48305831D01*
X197766349Y-48281868D01*
X197791269Y-48265143D01*
X197851193Y-48242885D01*
X197920933Y-48237864D01*
X197986622Y-48250540D01*
G37*
X194050115Y-48219568D02*
X194096694Y-48246511D01*
X194129079Y-48273254D01*
X194152764Y-48301272D01*
X194169081Y-48335536D01*
X194179361Y-48381015D01*
X194184936Y-48442680D01*
X194187138Y-48525499D01*
X194187393Y-48585034D01*
X194187393Y-48804179D01*
X194125708Y-48831832D01*
X194064022Y-48859485D01*
X194056765Y-48619458D01*
X194053766Y-48529816D01*
X194050620Y-48464750D01*
X194046723Y-48419814D01*
X194041469Y-48390558D01*
X194034253Y-48372536D01*
X194024472Y-48361299D01*
X194021334Y-48358867D01*
X193973783Y-48339871D01*
X193925719Y-48347388D01*
X193897108Y-48367331D01*
X193885469Y-48381463D01*
X193877413Y-48400008D01*
X193872293Y-48428122D01*
X193869463Y-48470961D01*
X193868278Y-48533683D01*
X193868079Y-48599049D01*
X193868040Y-48681056D01*
X193866636Y-48739104D01*
X193861936Y-48778253D01*
X193852009Y-48803568D01*
X193834925Y-48820111D01*
X193808754Y-48832944D01*
X193773797Y-48846279D01*
X193735618Y-48860795D01*
X193740163Y-48603177D01*
X193741993Y-48510307D01*
X193744134Y-48441677D01*
X193747203Y-48392499D01*
X193751816Y-48357986D01*
X193758590Y-48333350D01*
X193768141Y-48313804D01*
X193779656Y-48296558D01*
X193835212Y-48241468D01*
X193903002Y-48209610D01*
X193976735Y-48201979D01*
X194050115Y-48219568D01*
G36*
X194050115Y-48219568D02*
G01*
X194096694Y-48246511D01*
X194129079Y-48273254D01*
X194152764Y-48301272D01*
X194169081Y-48335536D01*
X194179361Y-48381015D01*
X194184936Y-48442680D01*
X194187138Y-48525499D01*
X194187393Y-48585034D01*
X194187393Y-48804179D01*
X194125708Y-48831832D01*
X194064022Y-48859485D01*
X194056765Y-48619458D01*
X194053766Y-48529816D01*
X194050620Y-48464750D01*
X194046723Y-48419814D01*
X194041469Y-48390558D01*
X194034253Y-48372536D01*
X194024472Y-48361299D01*
X194021334Y-48358867D01*
X193973783Y-48339871D01*
X193925719Y-48347388D01*
X193897108Y-48367331D01*
X193885469Y-48381463D01*
X193877413Y-48400008D01*
X193872293Y-48428122D01*
X193869463Y-48470961D01*
X193868278Y-48533683D01*
X193868079Y-48599049D01*
X193868040Y-48681056D01*
X193866636Y-48739104D01*
X193861936Y-48778253D01*
X193852009Y-48803568D01*
X193834925Y-48820111D01*
X193808754Y-48832944D01*
X193773797Y-48846279D01*
X193735618Y-48860795D01*
X193740163Y-48603177D01*
X193741993Y-48510307D01*
X193744134Y-48441677D01*
X193747203Y-48392499D01*
X193751816Y-48357986D01*
X193758590Y-48333350D01*
X193768141Y-48313804D01*
X193779656Y-48296558D01*
X193835212Y-48241468D01*
X193903002Y-48209610D01*
X193976735Y-48201979D01*
X194050115Y-48219568D01*
G37*
X195863948Y-48241543D02*
X195929880Y-48265872D01*
X195983295Y-48308905D01*
X196004186Y-48339197D01*
X196026961Y-48394782D01*
X196026488Y-48434974D01*
X196002584Y-48462005D01*
X195993739Y-48466601D01*
X195955552Y-48480932D01*
X195936050Y-48477260D01*
X195929444Y-48453195D01*
X195929108Y-48439902D01*
X195917014Y-48390998D01*
X195885493Y-48356787D01*
X195841681Y-48340264D01*
X195792717Y-48344422D01*
X195752916Y-48366015D01*
X195739472Y-48378332D01*
X195729943Y-48393275D01*
X195723507Y-48415863D01*
X195719339Y-48451116D01*
X195716619Y-48504054D01*
X195714524Y-48579695D01*
X195713982Y-48603645D01*
X195712003Y-48685578D01*
X195709753Y-48743243D01*
X195706379Y-48781396D01*
X195701028Y-48804792D01*
X195692846Y-48818186D01*
X195680981Y-48826333D01*
X195673384Y-48829932D01*
X195641124Y-48842240D01*
X195622133Y-48846302D01*
X195615858Y-48832736D01*
X195612028Y-48791722D01*
X195610622Y-48722787D01*
X195611620Y-48625457D01*
X195611930Y-48610445D01*
X195614123Y-48521647D01*
X195616715Y-48456807D01*
X195620404Y-48410855D01*
X195625886Y-48378723D01*
X195633857Y-48355341D01*
X195645015Y-48335640D01*
X195650852Y-48327198D01*
X195684318Y-48289845D01*
X195721749Y-48260791D01*
X195726331Y-48258255D01*
X195793448Y-48238231D01*
X195863948Y-48241543D01*
G36*
X195863948Y-48241543D02*
G01*
X195929880Y-48265872D01*
X195983295Y-48308905D01*
X196004186Y-48339197D01*
X196026961Y-48394782D01*
X196026488Y-48434974D01*
X196002584Y-48462005D01*
X195993739Y-48466601D01*
X195955552Y-48480932D01*
X195936050Y-48477260D01*
X195929444Y-48453195D01*
X195929108Y-48439902D01*
X195917014Y-48390998D01*
X195885493Y-48356787D01*
X195841681Y-48340264D01*
X195792717Y-48344422D01*
X195752916Y-48366015D01*
X195739472Y-48378332D01*
X195729943Y-48393275D01*
X195723507Y-48415863D01*
X195719339Y-48451116D01*
X195716619Y-48504054D01*
X195714524Y-48579695D01*
X195713982Y-48603645D01*
X195712003Y-48685578D01*
X195709753Y-48743243D01*
X195706379Y-48781396D01*
X195701028Y-48804792D01*
X195692846Y-48818186D01*
X195680981Y-48826333D01*
X195673384Y-48829932D01*
X195641124Y-48842240D01*
X195622133Y-48846302D01*
X195615858Y-48832736D01*
X195612028Y-48791722D01*
X195610622Y-48722787D01*
X195611620Y-48625457D01*
X195611930Y-48610445D01*
X195614123Y-48521647D01*
X195616715Y-48456807D01*
X195620404Y-48410855D01*
X195625886Y-48378723D01*
X195633857Y-48355341D01*
X195645015Y-48335640D01*
X195650852Y-48327198D01*
X195684318Y-48289845D01*
X195721749Y-48260791D01*
X195726331Y-48258255D01*
X195793448Y-48238231D01*
X195863948Y-48241543D01*
G37*
X194709908Y-48143077D02*
X194714161Y-48202401D01*
X194719047Y-48237360D01*
X194725817Y-48252608D01*
X194735724Y-48252803D01*
X194738936Y-48250983D01*
X194781666Y-48237803D01*
X194837249Y-48238573D01*
X194893759Y-48252121D01*
X194929104Y-48269649D01*
X194965343Y-48297649D01*
X194991835Y-48329337D01*
X195010021Y-48369601D01*
X195021344Y-48423331D01*
X195027244Y-48495414D01*
X195029165Y-48590739D01*
X195029199Y-48609025D01*
X195029222Y-48814434D01*
X194983513Y-48830368D01*
X194951049Y-48841208D01*
X194933237Y-48846256D01*
X194932713Y-48846302D01*
X194930959Y-48832616D01*
X194929466Y-48794864D01*
X194928348Y-48738012D01*
X194927719Y-48667022D01*
X194927622Y-48623861D01*
X194927420Y-48538761D01*
X194926380Y-48477769D01*
X194923853Y-48435965D01*
X194919186Y-48408430D01*
X194911729Y-48390244D01*
X194900833Y-48376486D01*
X194894029Y-48369861D01*
X194847294Y-48343163D01*
X194796294Y-48341163D01*
X194750023Y-48363743D01*
X194741466Y-48371895D01*
X194728915Y-48387224D01*
X194720210Y-48405406D01*
X194714653Y-48431697D01*
X194711548Y-48471350D01*
X194710198Y-48529620D01*
X194709908Y-48609961D01*
X194709908Y-48814434D01*
X194664199Y-48830368D01*
X194631735Y-48841208D01*
X194613923Y-48846256D01*
X194613399Y-48846302D01*
X194612059Y-48832411D01*
X194610850Y-48793227D01*
X194609823Y-48732488D01*
X194609024Y-48653929D01*
X194608503Y-48561286D01*
X194608308Y-48458297D01*
X194608308Y-48061130D01*
X194655479Y-48041232D01*
X194702651Y-48021335D01*
X194709908Y-48143077D01*
G36*
X194709908Y-48143077D02*
G01*
X194714161Y-48202401D01*
X194719047Y-48237360D01*
X194725817Y-48252608D01*
X194735724Y-48252803D01*
X194738936Y-48250983D01*
X194781666Y-48237803D01*
X194837249Y-48238573D01*
X194893759Y-48252121D01*
X194929104Y-48269649D01*
X194965343Y-48297649D01*
X194991835Y-48329337D01*
X195010021Y-48369601D01*
X195021344Y-48423331D01*
X195027244Y-48495414D01*
X195029165Y-48590739D01*
X195029199Y-48609025D01*
X195029222Y-48814434D01*
X194983513Y-48830368D01*
X194951049Y-48841208D01*
X194933237Y-48846256D01*
X194932713Y-48846302D01*
X194930959Y-48832616D01*
X194929466Y-48794864D01*
X194928348Y-48738012D01*
X194927719Y-48667022D01*
X194927622Y-48623861D01*
X194927420Y-48538761D01*
X194926380Y-48477769D01*
X194923853Y-48435965D01*
X194919186Y-48408430D01*
X194911729Y-48390244D01*
X194900833Y-48376486D01*
X194894029Y-48369861D01*
X194847294Y-48343163D01*
X194796294Y-48341163D01*
X194750023Y-48363743D01*
X194741466Y-48371895D01*
X194728915Y-48387224D01*
X194720210Y-48405406D01*
X194714653Y-48431697D01*
X194711548Y-48471350D01*
X194710198Y-48529620D01*
X194709908Y-48609961D01*
X194709908Y-48814434D01*
X194664199Y-48830368D01*
X194631735Y-48841208D01*
X194613923Y-48846256D01*
X194613399Y-48846302D01*
X194612059Y-48832411D01*
X194610850Y-48793227D01*
X194609823Y-48732488D01*
X194609024Y-48653929D01*
X194608503Y-48561286D01*
X194608308Y-48458297D01*
X194608308Y-48061130D01*
X194655479Y-48041232D01*
X194702651Y-48021335D01*
X194709908Y-48143077D01*
G37*
X197113855Y-48250451D02*
X197116070Y-48288638D01*
X197117806Y-48346674D01*
X197118921Y-48419968D01*
X197119279Y-48496843D01*
X197119279Y-48756984D01*
X197073348Y-48802915D01*
X197041697Y-48831217D01*
X197013912Y-48842681D01*
X196975937Y-48841956D01*
X196960862Y-48840109D01*
X196913748Y-48834736D01*
X196874778Y-48831657D01*
X196865279Y-48831373D01*
X196833255Y-48833233D01*
X196787454Y-48837902D01*
X196769696Y-48840109D01*
X196726079Y-48843523D01*
X196696767Y-48836108D01*
X196667702Y-48813215D01*
X196657210Y-48802915D01*
X196611279Y-48756984D01*
X196611279Y-48270390D01*
X196648248Y-48253546D01*
X196680081Y-48241070D01*
X196698705Y-48236702D01*
X196703480Y-48250506D01*
X196707943Y-48289074D01*
X196711797Y-48348144D01*
X196714744Y-48423451D01*
X196716165Y-48487074D01*
X196720136Y-48737445D01*
X196754781Y-48742344D01*
X196786290Y-48738919D01*
X196801730Y-48727829D01*
X196806045Y-48707096D01*
X196809730Y-48662933D01*
X196812491Y-48600934D01*
X196814034Y-48526697D01*
X196814257Y-48488494D01*
X196814479Y-48268571D01*
X196860188Y-48252637D01*
X196892540Y-48241803D01*
X196910137Y-48236750D01*
X196910645Y-48236702D01*
X196912410Y-48250436D01*
X196914351Y-48288518D01*
X196916304Y-48346270D01*
X196918106Y-48419015D01*
X196919365Y-48487074D01*
X196923336Y-48737445D01*
X197010422Y-48737445D01*
X197014418Y-48509028D01*
X197018414Y-48280610D01*
X197060869Y-48258656D01*
X197092214Y-48243581D01*
X197110766Y-48236739D01*
X197111301Y-48236702D01*
X197113855Y-48250451D01*
G36*
X197113855Y-48250451D02*
G01*
X197116070Y-48288638D01*
X197117806Y-48346674D01*
X197118921Y-48419968D01*
X197119279Y-48496843D01*
X197119279Y-48756984D01*
X197073348Y-48802915D01*
X197041697Y-48831217D01*
X197013912Y-48842681D01*
X196975937Y-48841956D01*
X196960862Y-48840109D01*
X196913748Y-48834736D01*
X196874778Y-48831657D01*
X196865279Y-48831373D01*
X196833255Y-48833233D01*
X196787454Y-48837902D01*
X196769696Y-48840109D01*
X196726079Y-48843523D01*
X196696767Y-48836108D01*
X196667702Y-48813215D01*
X196657210Y-48802915D01*
X196611279Y-48756984D01*
X196611279Y-48270390D01*
X196648248Y-48253546D01*
X196680081Y-48241070D01*
X196698705Y-48236702D01*
X196703480Y-48250506D01*
X196707943Y-48289074D01*
X196711797Y-48348144D01*
X196714744Y-48423451D01*
X196716165Y-48487074D01*
X196720136Y-48737445D01*
X196754781Y-48742344D01*
X196786290Y-48738919D01*
X196801730Y-48727829D01*
X196806045Y-48707096D01*
X196809730Y-48662933D01*
X196812491Y-48600934D01*
X196814034Y-48526697D01*
X196814257Y-48488494D01*
X196814479Y-48268571D01*
X196860188Y-48252637D01*
X196892540Y-48241803D01*
X196910137Y-48236750D01*
X196910645Y-48236702D01*
X196912410Y-48250436D01*
X196914351Y-48288518D01*
X196916304Y-48346270D01*
X196918106Y-48419015D01*
X196919365Y-48487074D01*
X196923336Y-48737445D01*
X197010422Y-48737445D01*
X197014418Y-48509028D01*
X197018414Y-48280610D01*
X197060869Y-48258656D01*
X197092214Y-48243581D01*
X197110766Y-48236739D01*
X197111301Y-48236702D01*
X197113855Y-48250451D01*
G37*
X192375137Y-48213750D02*
X192443167Y-48249521D01*
X192493373Y-48307089D01*
X192511207Y-48344100D01*
X192525085Y-48399670D01*
X192532189Y-48469884D01*
X192532862Y-48546515D01*
X192527449Y-48621340D01*
X192516292Y-48686130D01*
X192499736Y-48732661D01*
X192494648Y-48740675D01*
X192434377Y-48800495D01*
X192362791Y-48836323D01*
X192285114Y-48846808D01*
X192206570Y-48830598D01*
X192184711Y-48820880D01*
X192142144Y-48790931D01*
X192104785Y-48751221D01*
X192101254Y-48746185D01*
X192086903Y-48721912D01*
X192077416Y-48695966D01*
X192071812Y-48661810D01*
X192069108Y-48612907D01*
X192068321Y-48542723D01*
X192068308Y-48526988D01*
X192068344Y-48521980D01*
X192213451Y-48521980D01*
X192214295Y-48588218D01*
X192217618Y-48632174D01*
X192224605Y-48660567D01*
X192236438Y-48680113D01*
X192242479Y-48686645D01*
X192277208Y-48711468D01*
X192310925Y-48710336D01*
X192345017Y-48688804D01*
X192365351Y-48665817D01*
X192377393Y-48632266D01*
X192384156Y-48579357D01*
X192384620Y-48573187D01*
X192385774Y-48477301D01*
X192373710Y-48406087D01*
X192348592Y-48359982D01*
X192310582Y-48339423D01*
X192297014Y-48338302D01*
X192261386Y-48343940D01*
X192237016Y-48363474D01*
X192222115Y-48400830D01*
X192214897Y-48459938D01*
X192213451Y-48521980D01*
X192068344Y-48521980D01*
X192068848Y-48452201D01*
X192071118Y-48399947D01*
X192076090Y-48363737D01*
X192084735Y-48337087D01*
X192098027Y-48313510D01*
X192100965Y-48309126D01*
X192150335Y-48250037D01*
X192204131Y-48215735D01*
X192269624Y-48202119D01*
X192291864Y-48201453D01*
X192375137Y-48213750D01*
G36*
X192375137Y-48213750D02*
G01*
X192443167Y-48249521D01*
X192493373Y-48307089D01*
X192511207Y-48344100D01*
X192525085Y-48399670D01*
X192532189Y-48469884D01*
X192532862Y-48546515D01*
X192527449Y-48621340D01*
X192516292Y-48686130D01*
X192499736Y-48732661D01*
X192494648Y-48740675D01*
X192434377Y-48800495D01*
X192362791Y-48836323D01*
X192285114Y-48846808D01*
X192206570Y-48830598D01*
X192184711Y-48820880D01*
X192142144Y-48790931D01*
X192104785Y-48751221D01*
X192101254Y-48746185D01*
X192086903Y-48721912D01*
X192077416Y-48695966D01*
X192071812Y-48661810D01*
X192069108Y-48612907D01*
X192068321Y-48542723D01*
X192068308Y-48526988D01*
X192068344Y-48521980D01*
X192213451Y-48521980D01*
X192214295Y-48588218D01*
X192217618Y-48632174D01*
X192224605Y-48660567D01*
X192236438Y-48680113D01*
X192242479Y-48686645D01*
X192277208Y-48711468D01*
X192310925Y-48710336D01*
X192345017Y-48688804D01*
X192365351Y-48665817D01*
X192377393Y-48632266D01*
X192384156Y-48579357D01*
X192384620Y-48573187D01*
X192385774Y-48477301D01*
X192373710Y-48406087D01*
X192348592Y-48359982D01*
X192310582Y-48339423D01*
X192297014Y-48338302D01*
X192261386Y-48343940D01*
X192237016Y-48363474D01*
X192222115Y-48400830D01*
X192214897Y-48459938D01*
X192213451Y-48521980D01*
X192068344Y-48521980D01*
X192068848Y-48452201D01*
X192071118Y-48399947D01*
X192076090Y-48363737D01*
X192084735Y-48337087D01*
X192098027Y-48313510D01*
X192100965Y-48309126D01*
X192150335Y-48250037D01*
X192204131Y-48215735D01*
X192269624Y-48202119D01*
X192291864Y-48201453D01*
X192375137Y-48213750D01*
G37*
X198487617Y-48258754D02*
X198545043Y-48296285D01*
X198572741Y-48329884D01*
X198594684Y-48390852D01*
X198596427Y-48439096D01*
X198592479Y-48503604D01*
X198443708Y-48568722D01*
X198371371Y-48601990D01*
X198324106Y-48628752D01*
X198299529Y-48651932D01*
X198295259Y-48674455D01*
X198308911Y-48699243D01*
X198323965Y-48715674D01*
X198367768Y-48742023D01*
X198415411Y-48743869D01*
X198459167Y-48723334D01*
X198491311Y-48682540D01*
X198497060Y-48668135D01*
X198524598Y-48623144D01*
X198556280Y-48603970D01*
X198599736Y-48587567D01*
X198599736Y-48649754D01*
X198595894Y-48692071D01*
X198580845Y-48727757D01*
X198549302Y-48768731D01*
X198544614Y-48774055D01*
X198509528Y-48810508D01*
X198479369Y-48830071D01*
X198441637Y-48839071D01*
X198410357Y-48842018D01*
X198354407Y-48842753D01*
X198314577Y-48833448D01*
X198289730Y-48819634D01*
X198250678Y-48789255D01*
X198223647Y-48756401D01*
X198206539Y-48715082D01*
X198197260Y-48659309D01*
X198193715Y-48583093D01*
X198193432Y-48544410D01*
X198194394Y-48498035D01*
X198282029Y-48498035D01*
X198283045Y-48522914D01*
X198285578Y-48526988D01*
X198302296Y-48521453D01*
X198338271Y-48506805D01*
X198386353Y-48485978D01*
X198396408Y-48481502D01*
X198457174Y-48450602D01*
X198490654Y-48423445D01*
X198498012Y-48398008D01*
X198480413Y-48372269D01*
X198465878Y-48360897D01*
X198413432Y-48338152D01*
X198364344Y-48341910D01*
X198323249Y-48369672D01*
X198294780Y-48418940D01*
X198285653Y-48458045D01*
X198282029Y-48498035D01*
X198194394Y-48498035D01*
X198195307Y-48454037D01*
X198202218Y-48387172D01*
X198215906Y-48338483D01*
X198238118Y-48302637D01*
X198270596Y-48274301D01*
X198284755Y-48265143D01*
X198349075Y-48241295D01*
X198419495Y-48239794D01*
X198487617Y-48258754D01*
G36*
X198487617Y-48258754D02*
G01*
X198545043Y-48296285D01*
X198572741Y-48329884D01*
X198594684Y-48390852D01*
X198596427Y-48439096D01*
X198592479Y-48503604D01*
X198443708Y-48568722D01*
X198371371Y-48601990D01*
X198324106Y-48628752D01*
X198299529Y-48651932D01*
X198295259Y-48674455D01*
X198308911Y-48699243D01*
X198323965Y-48715674D01*
X198367768Y-48742023D01*
X198415411Y-48743869D01*
X198459167Y-48723334D01*
X198491311Y-48682540D01*
X198497060Y-48668135D01*
X198524598Y-48623144D01*
X198556280Y-48603970D01*
X198599736Y-48587567D01*
X198599736Y-48649754D01*
X198595894Y-48692071D01*
X198580845Y-48727757D01*
X198549302Y-48768731D01*
X198544614Y-48774055D01*
X198509528Y-48810508D01*
X198479369Y-48830071D01*
X198441637Y-48839071D01*
X198410357Y-48842018D01*
X198354407Y-48842753D01*
X198314577Y-48833448D01*
X198289730Y-48819634D01*
X198250678Y-48789255D01*
X198223647Y-48756401D01*
X198206539Y-48715082D01*
X198197260Y-48659309D01*
X198193715Y-48583093D01*
X198193432Y-48544410D01*
X198194394Y-48498035D01*
X198282029Y-48498035D01*
X198283045Y-48522914D01*
X198285578Y-48526988D01*
X198302296Y-48521453D01*
X198338271Y-48506805D01*
X198386353Y-48485978D01*
X198396408Y-48481502D01*
X198457174Y-48450602D01*
X198490654Y-48423445D01*
X198498012Y-48398008D01*
X198480413Y-48372269D01*
X198465878Y-48360897D01*
X198413432Y-48338152D01*
X198364344Y-48341910D01*
X198323249Y-48369672D01*
X198294780Y-48418940D01*
X198285653Y-48458045D01*
X198282029Y-48498035D01*
X198194394Y-48498035D01*
X198195307Y-48454037D01*
X198202218Y-48387172D01*
X198215906Y-48338483D01*
X198238118Y-48302637D01*
X198270596Y-48274301D01*
X198284755Y-48265143D01*
X198349075Y-48241295D01*
X198419495Y-48239794D01*
X198487617Y-48258754D01*
G37*
X196524139Y-48357146D02*
X196523955Y-48465625D01*
X196523241Y-48549075D01*
X196521697Y-48611492D01*
X196519023Y-48656873D01*
X196514916Y-48689217D01*
X196509077Y-48712521D01*
X196501204Y-48730783D01*
X196495243Y-48741206D01*
X196445877Y-48797733D01*
X196383286Y-48833165D01*
X196314035Y-48845878D01*
X196244690Y-48834251D01*
X196203397Y-48813356D01*
X196160047Y-48777210D01*
X196130503Y-48733064D01*
X196112677Y-48675250D01*
X196104485Y-48598101D01*
X196103324Y-48541502D01*
X196103480Y-48537435D01*
X196204879Y-48537435D01*
X196205498Y-48602338D01*
X196208336Y-48645302D01*
X196214862Y-48673410D01*
X196226545Y-48693741D01*
X196240505Y-48709076D01*
X196287387Y-48738678D01*
X196337723Y-48741207D01*
X196385298Y-48716493D01*
X196389001Y-48713144D01*
X196404805Y-48695723D01*
X196414715Y-48674997D01*
X196420080Y-48644150D01*
X196422250Y-48596365D01*
X196422593Y-48543536D01*
X196421849Y-48477169D01*
X196418770Y-48432894D01*
X196412083Y-48403797D01*
X196400518Y-48382961D01*
X196391035Y-48371895D01*
X196346982Y-48343986D01*
X196296246Y-48340631D01*
X196247818Y-48361947D01*
X196238472Y-48369861D01*
X196222562Y-48387435D01*
X196212632Y-48408375D01*
X196207300Y-48439570D01*
X196205185Y-48487910D01*
X196204879Y-48537435D01*
X196103480Y-48537435D01*
X196106832Y-48450356D01*
X196118748Y-48381874D01*
X196141157Y-48330388D01*
X196176146Y-48290231D01*
X196203397Y-48269649D01*
X196252929Y-48247413D01*
X196310338Y-48237092D01*
X196363704Y-48239855D01*
X196393565Y-48251000D01*
X196405283Y-48254171D01*
X196413059Y-48242345D01*
X196418487Y-48210654D01*
X196422593Y-48162381D01*
X196427089Y-48108617D01*
X196433335Y-48076270D01*
X196444698Y-48057773D01*
X196464550Y-48045558D01*
X196477022Y-48040150D01*
X196524193Y-48020389D01*
X196524139Y-48357146D01*
G36*
X196524139Y-48357146D02*
G01*
X196523955Y-48465625D01*
X196523241Y-48549075D01*
X196521697Y-48611492D01*
X196519023Y-48656873D01*
X196514916Y-48689217D01*
X196509077Y-48712521D01*
X196501204Y-48730783D01*
X196495243Y-48741206D01*
X196445877Y-48797733D01*
X196383286Y-48833165D01*
X196314035Y-48845878D01*
X196244690Y-48834251D01*
X196203397Y-48813356D01*
X196160047Y-48777210D01*
X196130503Y-48733064D01*
X196112677Y-48675250D01*
X196104485Y-48598101D01*
X196103324Y-48541502D01*
X196103480Y-48537435D01*
X196204879Y-48537435D01*
X196205498Y-48602338D01*
X196208336Y-48645302D01*
X196214862Y-48673410D01*
X196226545Y-48693741D01*
X196240505Y-48709076D01*
X196287387Y-48738678D01*
X196337723Y-48741207D01*
X196385298Y-48716493D01*
X196389001Y-48713144D01*
X196404805Y-48695723D01*
X196414715Y-48674997D01*
X196420080Y-48644150D01*
X196422250Y-48596365D01*
X196422593Y-48543536D01*
X196421849Y-48477169D01*
X196418770Y-48432894D01*
X196412083Y-48403797D01*
X196400518Y-48382961D01*
X196391035Y-48371895D01*
X196346982Y-48343986D01*
X196296246Y-48340631D01*
X196247818Y-48361947D01*
X196238472Y-48369861D01*
X196222562Y-48387435D01*
X196212632Y-48408375D01*
X196207300Y-48439570D01*
X196205185Y-48487910D01*
X196204879Y-48537435D01*
X196103480Y-48537435D01*
X196106832Y-48450356D01*
X196118748Y-48381874D01*
X196141157Y-48330388D01*
X196176146Y-48290231D01*
X196203397Y-48269649D01*
X196252929Y-48247413D01*
X196310338Y-48237092D01*
X196363704Y-48239855D01*
X196393565Y-48251000D01*
X196405283Y-48254171D01*
X196413059Y-48242345D01*
X196418487Y-48210654D01*
X196422593Y-48162381D01*
X196427089Y-48108617D01*
X196433335Y-48076270D01*
X196444698Y-48057773D01*
X196464550Y-48045558D01*
X196477022Y-48040150D01*
X196524193Y-48020389D01*
X196524139Y-48357146D01*
G37*
X193502325Y-48223027D02*
X193559549Y-48261523D01*
X193603771Y-48317123D01*
X193630189Y-48387874D01*
X193635532Y-48439950D01*
X193634925Y-48461681D01*
X193629844Y-48478319D01*
X193615877Y-48493225D01*
X193588611Y-48509761D01*
X193543634Y-48531286D01*
X193476533Y-48561162D01*
X193476193Y-48561312D01*
X193414429Y-48589601D01*
X193363781Y-48614721D01*
X193329426Y-48633967D01*
X193316540Y-48644636D01*
X193316536Y-48644722D01*
X193327894Y-48667954D01*
X193354453Y-48693562D01*
X193384945Y-48712009D01*
X193400392Y-48715674D01*
X193442537Y-48703000D01*
X193478830Y-48671259D01*
X193496539Y-48636360D01*
X193513574Y-48610633D01*
X193546944Y-48581334D01*
X193586171Y-48556023D01*
X193620778Y-48542259D01*
X193628015Y-48541502D01*
X193636161Y-48553948D01*
X193636652Y-48585760D01*
X193630665Y-48628654D01*
X193619379Y-48674346D01*
X193603972Y-48714549D01*
X193603193Y-48716110D01*
X193556826Y-48780850D01*
X193496733Y-48824885D01*
X193428487Y-48846499D01*
X193357660Y-48843973D01*
X193289826Y-48815592D01*
X193286810Y-48813596D01*
X193233449Y-48765236D01*
X193198362Y-48702140D01*
X193178944Y-48619175D01*
X193176338Y-48595866D01*
X193171723Y-48485843D01*
X193177255Y-48434536D01*
X193316536Y-48434536D01*
X193318346Y-48466541D01*
X193328244Y-48475881D01*
X193352920Y-48468893D01*
X193391817Y-48452375D01*
X193435297Y-48431669D01*
X193436378Y-48431121D01*
X193473231Y-48411737D01*
X193488022Y-48398801D01*
X193484375Y-48385239D01*
X193469017Y-48367420D01*
X193429945Y-48341633D01*
X193387868Y-48339738D01*
X193350125Y-48358505D01*
X193324056Y-48394703D01*
X193316536Y-48434536D01*
X193177255Y-48434536D01*
X193181216Y-48397815D01*
X193205572Y-48328000D01*
X193239478Y-48279090D01*
X193300675Y-48229666D01*
X193368085Y-48205147D01*
X193436902Y-48203585D01*
X193502325Y-48223027D01*
G36*
X193502325Y-48223027D02*
G01*
X193559549Y-48261523D01*
X193603771Y-48317123D01*
X193630189Y-48387874D01*
X193635532Y-48439950D01*
X193634925Y-48461681D01*
X193629844Y-48478319D01*
X193615877Y-48493225D01*
X193588611Y-48509761D01*
X193543634Y-48531286D01*
X193476533Y-48561162D01*
X193476193Y-48561312D01*
X193414429Y-48589601D01*
X193363781Y-48614721D01*
X193329426Y-48633967D01*
X193316540Y-48644636D01*
X193316536Y-48644722D01*
X193327894Y-48667954D01*
X193354453Y-48693562D01*
X193384945Y-48712009D01*
X193400392Y-48715674D01*
X193442537Y-48703000D01*
X193478830Y-48671259D01*
X193496539Y-48636360D01*
X193513574Y-48610633D01*
X193546944Y-48581334D01*
X193586171Y-48556023D01*
X193620778Y-48542259D01*
X193628015Y-48541502D01*
X193636161Y-48553948D01*
X193636652Y-48585760D01*
X193630665Y-48628654D01*
X193619379Y-48674346D01*
X193603972Y-48714549D01*
X193603193Y-48716110D01*
X193556826Y-48780850D01*
X193496733Y-48824885D01*
X193428487Y-48846499D01*
X193357660Y-48843973D01*
X193289826Y-48815592D01*
X193286810Y-48813596D01*
X193233449Y-48765236D01*
X193198362Y-48702140D01*
X193178944Y-48619175D01*
X193176338Y-48595866D01*
X193171723Y-48485843D01*
X193177255Y-48434536D01*
X193316536Y-48434536D01*
X193318346Y-48466541D01*
X193328244Y-48475881D01*
X193352920Y-48468893D01*
X193391817Y-48452375D01*
X193435297Y-48431669D01*
X193436378Y-48431121D01*
X193473231Y-48411737D01*
X193488022Y-48398801D01*
X193484375Y-48385239D01*
X193469017Y-48367420D01*
X193429945Y-48341633D01*
X193387868Y-48339738D01*
X193350125Y-48358505D01*
X193324056Y-48394703D01*
X193316536Y-48434536D01*
X193177255Y-48434536D01*
X193181216Y-48397815D01*
X193205572Y-48328000D01*
X193239478Y-48279090D01*
X193300675Y-48229666D01*
X193368085Y-48205147D01*
X193436902Y-48203585D01*
X193502325Y-48223027D01*
G37*
X195373766Y-48242756D02*
X195430638Y-48263875D01*
X195431289Y-48264281D01*
X195466462Y-48290168D01*
X195492429Y-48320421D01*
X195510692Y-48359846D01*
X195522754Y-48413250D01*
X195530118Y-48485439D01*
X195534286Y-48581220D01*
X195534651Y-48594866D01*
X195539898Y-48800630D01*
X195495738Y-48823466D01*
X195463785Y-48838898D01*
X195444492Y-48846211D01*
X195443600Y-48846302D01*
X195440261Y-48832810D01*
X195437609Y-48796414D01*
X195435978Y-48743240D01*
X195435622Y-48700181D01*
X195435614Y-48630429D01*
X195432425Y-48586625D01*
X195421310Y-48565732D01*
X195397523Y-48564713D01*
X195356318Y-48580529D01*
X195294108Y-48609603D01*
X195248363Y-48633751D01*
X195224835Y-48654701D01*
X195217918Y-48677535D01*
X195217908Y-48678665D01*
X195229321Y-48718000D01*
X195263114Y-48739250D01*
X195314831Y-48742327D01*
X195352083Y-48741794D01*
X195371725Y-48752523D01*
X195383974Y-48778293D01*
X195391024Y-48811125D01*
X195380864Y-48829754D01*
X195377039Y-48832420D01*
X195341023Y-48843128D01*
X195290588Y-48844644D01*
X195238648Y-48837547D01*
X195201844Y-48824576D01*
X195150960Y-48781373D01*
X195122036Y-48721234D01*
X195116308Y-48674250D01*
X195120679Y-48631870D01*
X195136497Y-48597276D01*
X195167819Y-48566551D01*
X195218700Y-48535778D01*
X195293198Y-48501040D01*
X195297736Y-48499076D01*
X195364843Y-48468075D01*
X195406254Y-48442650D01*
X195424003Y-48419802D01*
X195420129Y-48396533D01*
X195396665Y-48369844D01*
X195389649Y-48363702D01*
X195342652Y-48339888D01*
X195293955Y-48340891D01*
X195251544Y-48364239D01*
X195223406Y-48407463D01*
X195220791Y-48415948D01*
X195195330Y-48457096D01*
X195163023Y-48476916D01*
X195116308Y-48496558D01*
X195116308Y-48445738D01*
X195130518Y-48371870D01*
X195172697Y-48304115D01*
X195194646Y-48281449D01*
X195244539Y-48252357D01*
X195307989Y-48239188D01*
X195373766Y-48242756D01*
G36*
X195373766Y-48242756D02*
G01*
X195430638Y-48263875D01*
X195431289Y-48264281D01*
X195466462Y-48290168D01*
X195492429Y-48320421D01*
X195510692Y-48359846D01*
X195522754Y-48413250D01*
X195530118Y-48485439D01*
X195534286Y-48581220D01*
X195534651Y-48594866D01*
X195539898Y-48800630D01*
X195495738Y-48823466D01*
X195463785Y-48838898D01*
X195444492Y-48846211D01*
X195443600Y-48846302D01*
X195440261Y-48832810D01*
X195437609Y-48796414D01*
X195435978Y-48743240D01*
X195435622Y-48700181D01*
X195435614Y-48630429D01*
X195432425Y-48586625D01*
X195421310Y-48565732D01*
X195397523Y-48564713D01*
X195356318Y-48580529D01*
X195294108Y-48609603D01*
X195248363Y-48633751D01*
X195224835Y-48654701D01*
X195217918Y-48677535D01*
X195217908Y-48678665D01*
X195229321Y-48718000D01*
X195263114Y-48739250D01*
X195314831Y-48742327D01*
X195352083Y-48741794D01*
X195371725Y-48752523D01*
X195383974Y-48778293D01*
X195391024Y-48811125D01*
X195380864Y-48829754D01*
X195377039Y-48832420D01*
X195341023Y-48843128D01*
X195290588Y-48844644D01*
X195238648Y-48837547D01*
X195201844Y-48824576D01*
X195150960Y-48781373D01*
X195122036Y-48721234D01*
X195116308Y-48674250D01*
X195120679Y-48631870D01*
X195136497Y-48597276D01*
X195167819Y-48566551D01*
X195218700Y-48535778D01*
X195293198Y-48501040D01*
X195297736Y-48499076D01*
X195364843Y-48468075D01*
X195406254Y-48442650D01*
X195424003Y-48419802D01*
X195420129Y-48396533D01*
X195396665Y-48369844D01*
X195389649Y-48363702D01*
X195342652Y-48339888D01*
X195293955Y-48340891D01*
X195251544Y-48364239D01*
X195223406Y-48407463D01*
X195220791Y-48415948D01*
X195195330Y-48457096D01*
X195163023Y-48476916D01*
X195116308Y-48496558D01*
X195116308Y-48445738D01*
X195130518Y-48371870D01*
X195172697Y-48304115D01*
X195194646Y-48281449D01*
X195244539Y-48252357D01*
X195307989Y-48239188D01*
X195373766Y-48242756D01*
G37*
X192933766Y-48211706D02*
X192989223Y-48239356D01*
X193038170Y-48290268D01*
X193051651Y-48309126D01*
X193066336Y-48333803D01*
X193075864Y-48360604D01*
X193081315Y-48396375D01*
X193083769Y-48447957D01*
X193084308Y-48516055D01*
X193081874Y-48609376D01*
X193073416Y-48679445D01*
X193057196Y-48731719D01*
X193031476Y-48771657D01*
X192994519Y-48804717D01*
X192991804Y-48806674D01*
X192955382Y-48826696D01*
X192911524Y-48836603D01*
X192855746Y-48839045D01*
X192765070Y-48839045D01*
X192765032Y-48927071D01*
X192764188Y-48976096D01*
X192759046Y-49004853D01*
X192745609Y-49022099D01*
X192719880Y-49036596D01*
X192713701Y-49039557D01*
X192684786Y-49053436D01*
X192662398Y-49062202D01*
X192645751Y-49062959D01*
X192634058Y-49052811D01*
X192626532Y-49028861D01*
X192622388Y-48988214D01*
X192620837Y-48927974D01*
X192621093Y-48845243D01*
X192622371Y-48737127D01*
X192622770Y-48704788D01*
X192624207Y-48593312D01*
X192625494Y-48520391D01*
X192764993Y-48520391D01*
X192765777Y-48582287D01*
X192769262Y-48622785D01*
X192777146Y-48649496D01*
X192791127Y-48670032D01*
X192800619Y-48680048D01*
X192839426Y-48709355D01*
X192873785Y-48711740D01*
X192909238Y-48687538D01*
X192910136Y-48686645D01*
X192924561Y-48667941D01*
X192933335Y-48642520D01*
X192937761Y-48603372D01*
X192939140Y-48543485D01*
X192939165Y-48530218D01*
X192935834Y-48447689D01*
X192924991Y-48390479D01*
X192905362Y-48355554D01*
X192875672Y-48339882D01*
X192858513Y-48338302D01*
X192817788Y-48345714D01*
X192789854Y-48370118D01*
X192773039Y-48414768D01*
X192765672Y-48482918D01*
X192764993Y-48520391D01*
X192625494Y-48520391D01*
X192625730Y-48507033D01*
X192627699Y-48442121D01*
X192630472Y-48394746D01*
X192634410Y-48361078D01*
X192639871Y-48337286D01*
X192647214Y-48319541D01*
X192656799Y-48304012D01*
X192660909Y-48298169D01*
X192715427Y-48242973D01*
X192784358Y-48211678D01*
X192864094Y-48202953D01*
X192933766Y-48211706D01*
G36*
X192933766Y-48211706D02*
G01*
X192989223Y-48239356D01*
X193038170Y-48290268D01*
X193051651Y-48309126D01*
X193066336Y-48333803D01*
X193075864Y-48360604D01*
X193081315Y-48396375D01*
X193083769Y-48447957D01*
X193084308Y-48516055D01*
X193081874Y-48609376D01*
X193073416Y-48679445D01*
X193057196Y-48731719D01*
X193031476Y-48771657D01*
X192994519Y-48804717D01*
X192991804Y-48806674D01*
X192955382Y-48826696D01*
X192911524Y-48836603D01*
X192855746Y-48839045D01*
X192765070Y-48839045D01*
X192765032Y-48927071D01*
X192764188Y-48976096D01*
X192759046Y-49004853D01*
X192745609Y-49022099D01*
X192719880Y-49036596D01*
X192713701Y-49039557D01*
X192684786Y-49053436D01*
X192662398Y-49062202D01*
X192645751Y-49062959D01*
X192634058Y-49052811D01*
X192626532Y-49028861D01*
X192622388Y-48988214D01*
X192620837Y-48927974D01*
X192621093Y-48845243D01*
X192622371Y-48737127D01*
X192622770Y-48704788D01*
X192624207Y-48593312D01*
X192625494Y-48520391D01*
X192764993Y-48520391D01*
X192765777Y-48582287D01*
X192769262Y-48622785D01*
X192777146Y-48649496D01*
X192791127Y-48670032D01*
X192800619Y-48680048D01*
X192839426Y-48709355D01*
X192873785Y-48711740D01*
X192909238Y-48687538D01*
X192910136Y-48686645D01*
X192924561Y-48667941D01*
X192933335Y-48642520D01*
X192937761Y-48603372D01*
X192939140Y-48543485D01*
X192939165Y-48530218D01*
X192935834Y-48447689D01*
X192924991Y-48390479D01*
X192905362Y-48355554D01*
X192875672Y-48339882D01*
X192858513Y-48338302D01*
X192817788Y-48345714D01*
X192789854Y-48370118D01*
X192773039Y-48414768D01*
X192765672Y-48482918D01*
X192764993Y-48520391D01*
X192625494Y-48520391D01*
X192625730Y-48507033D01*
X192627699Y-48442121D01*
X192630472Y-48394746D01*
X192634410Y-48361078D01*
X192639871Y-48337286D01*
X192647214Y-48319541D01*
X192656799Y-48304012D01*
X192660909Y-48298169D01*
X192715427Y-48242973D01*
X192784358Y-48211678D01*
X192864094Y-48202953D01*
X192933766Y-48211706D01*
G37*
X197478898Y-48248123D02*
X197520689Y-48267132D01*
X197553491Y-48290166D01*
X197577525Y-48315921D01*
X197594119Y-48349146D01*
X197604599Y-48394588D01*
X197610293Y-48456995D01*
X197612529Y-48541115D01*
X197612765Y-48596509D01*
X197612765Y-48812614D01*
X197575796Y-48829458D01*
X197546678Y-48841769D01*
X197532253Y-48846302D01*
X197529494Y-48832813D01*
X197527304Y-48796441D01*
X197525964Y-48743330D01*
X197525679Y-48701160D01*
X197524456Y-48640235D01*
X197521158Y-48591903D01*
X197516343Y-48562306D01*
X197512518Y-48556017D01*
X197486805Y-48562440D01*
X197446440Y-48578913D01*
X197399701Y-48601246D01*
X197354867Y-48625245D01*
X197320215Y-48646718D01*
X197304024Y-48661473D01*
X197303960Y-48661633D01*
X197305352Y-48688940D01*
X197317840Y-48715007D01*
X197339765Y-48736180D01*
X197371765Y-48743262D01*
X197399114Y-48742437D01*
X197437848Y-48741830D01*
X197458180Y-48750904D01*
X197470391Y-48774880D01*
X197471931Y-48779401D01*
X197477225Y-48813594D01*
X197463069Y-48834356D01*
X197426170Y-48844250D01*
X197386311Y-48846080D01*
X197314584Y-48832515D01*
X197277454Y-48813143D01*
X197231598Y-48767633D01*
X197207278Y-48711771D01*
X197205095Y-48652745D01*
X197225651Y-48597741D01*
X197256571Y-48563274D01*
X197287442Y-48543977D01*
X197335964Y-48519547D01*
X197392507Y-48494773D01*
X197401932Y-48490987D01*
X197464041Y-48463579D01*
X197499844Y-48439422D01*
X197511359Y-48415407D01*
X197500602Y-48388423D01*
X197482136Y-48367331D01*
X197438491Y-48341360D01*
X197390468Y-48339412D01*
X197346428Y-48359425D01*
X197314731Y-48399339D01*
X197310571Y-48409636D01*
X197286349Y-48447512D01*
X197250987Y-48475630D01*
X197206365Y-48498705D01*
X197206365Y-48433273D01*
X197208991Y-48393294D01*
X197220252Y-48361785D01*
X197245221Y-48328166D01*
X197269191Y-48302272D01*
X197306463Y-48265605D01*
X197335423Y-48245909D01*
X197366527Y-48238008D01*
X197401735Y-48236702D01*
X197478898Y-48248123D01*
G36*
X197478898Y-48248123D02*
G01*
X197520689Y-48267132D01*
X197553491Y-48290166D01*
X197577525Y-48315921D01*
X197594119Y-48349146D01*
X197604599Y-48394588D01*
X197610293Y-48456995D01*
X197612529Y-48541115D01*
X197612765Y-48596509D01*
X197612765Y-48812614D01*
X197575796Y-48829458D01*
X197546678Y-48841769D01*
X197532253Y-48846302D01*
X197529494Y-48832813D01*
X197527304Y-48796441D01*
X197525964Y-48743330D01*
X197525679Y-48701160D01*
X197524456Y-48640235D01*
X197521158Y-48591903D01*
X197516343Y-48562306D01*
X197512518Y-48556017D01*
X197486805Y-48562440D01*
X197446440Y-48578913D01*
X197399701Y-48601246D01*
X197354867Y-48625245D01*
X197320215Y-48646718D01*
X197304024Y-48661473D01*
X197303960Y-48661633D01*
X197305352Y-48688940D01*
X197317840Y-48715007D01*
X197339765Y-48736180D01*
X197371765Y-48743262D01*
X197399114Y-48742437D01*
X197437848Y-48741830D01*
X197458180Y-48750904D01*
X197470391Y-48774880D01*
X197471931Y-48779401D01*
X197477225Y-48813594D01*
X197463069Y-48834356D01*
X197426170Y-48844250D01*
X197386311Y-48846080D01*
X197314584Y-48832515D01*
X197277454Y-48813143D01*
X197231598Y-48767633D01*
X197207278Y-48711771D01*
X197205095Y-48652745D01*
X197225651Y-48597741D01*
X197256571Y-48563274D01*
X197287442Y-48543977D01*
X197335964Y-48519547D01*
X197392507Y-48494773D01*
X197401932Y-48490987D01*
X197464041Y-48463579D01*
X197499844Y-48439422D01*
X197511359Y-48415407D01*
X197500602Y-48388423D01*
X197482136Y-48367331D01*
X197438491Y-48341360D01*
X197390468Y-48339412D01*
X197346428Y-48359425D01*
X197314731Y-48399339D01*
X197310571Y-48409636D01*
X197286349Y-48447512D01*
X197250987Y-48475630D01*
X197206365Y-48498705D01*
X197206365Y-48433273D01*
X197208991Y-48393294D01*
X197220252Y-48361785D01*
X197245221Y-48328166D01*
X197269191Y-48302272D01*
X197306463Y-48265605D01*
X197335423Y-48245909D01*
X197366527Y-48238008D01*
X197401735Y-48236702D01*
X197478898Y-48248123D01*
G37*
X195437932Y-43534136D02*
X195516476Y-43534566D01*
X195573320Y-43535730D01*
X195612127Y-43537995D01*
X195636560Y-43541728D01*
X195650284Y-43547294D01*
X195656962Y-43555061D01*
X195660258Y-43565393D01*
X195660578Y-43566731D01*
X195665584Y-43590867D01*
X195674851Y-43638489D01*
X195687414Y-43704529D01*
X195702309Y-43783916D01*
X195718573Y-43871584D01*
X195719141Y-43874663D01*
X195735432Y-43960577D01*
X195750674Y-44036484D01*
X195763883Y-44097833D01*
X195774076Y-44140070D01*
X195780270Y-44158643D01*
X195780565Y-44158972D01*
X195798810Y-44168041D01*
X195836427Y-44183155D01*
X195885293Y-44201050D01*
X195885565Y-44201146D01*
X195947115Y-44224281D01*
X196019679Y-44253753D01*
X196088079Y-44283385D01*
X196091316Y-44284850D01*
X196202724Y-44335414D01*
X196449421Y-44166948D01*
X196525099Y-44115591D01*
X196593653Y-44069677D01*
X196651110Y-44031818D01*
X196693498Y-44004625D01*
X196716847Y-43990709D01*
X196719064Y-43989677D01*
X196736032Y-43994272D01*
X196767723Y-44016443D01*
X196815374Y-44057235D01*
X196880220Y-44117693D01*
X196946419Y-44182015D01*
X197010236Y-44245400D01*
X197067351Y-44303239D01*
X197114327Y-44351963D01*
X197147725Y-44387998D01*
X197164107Y-44407772D01*
X197164716Y-44408790D01*
X197166527Y-44422360D01*
X197159705Y-44444521D01*
X197142562Y-44478266D01*
X197113415Y-44526588D01*
X197070577Y-44592480D01*
X197013470Y-44677305D01*
X196962788Y-44751965D01*
X196917483Y-44818928D01*
X196880172Y-44874304D01*
X196853474Y-44914208D01*
X196840007Y-44934750D01*
X196839159Y-44936144D01*
X196840803Y-44955826D01*
X196853267Y-44994081D01*
X196874070Y-45043677D01*
X196881484Y-45059516D01*
X196913836Y-45130078D01*
X196948350Y-45210141D01*
X196976387Y-45279417D01*
X196996590Y-45330833D01*
X197012637Y-45369907D01*
X197021910Y-45390329D01*
X197023063Y-45391902D01*
X197040118Y-45394509D01*
X197080320Y-45401651D01*
X197138324Y-45412311D01*
X197208785Y-45425473D01*
X197286357Y-45440121D01*
X197365694Y-45455237D01*
X197441453Y-45469806D01*
X197508286Y-45482810D01*
X197560850Y-45493233D01*
X197593798Y-45500058D01*
X197601879Y-45501987D01*
X197610227Y-45506750D01*
X197616528Y-45517506D01*
X197621067Y-45537886D01*
X197624126Y-45571522D01*
X197625989Y-45622043D01*
X197626940Y-45693080D01*
X197627262Y-45788264D01*
X197627279Y-45827280D01*
X197627279Y-46144587D01*
X197551079Y-46159627D01*
X197508685Y-46167783D01*
X197445422Y-46179687D01*
X197368984Y-46193904D01*
X197287065Y-46208998D01*
X197264422Y-46213143D01*
X197188828Y-46227841D01*
X197122975Y-46242293D01*
X197072388Y-46255163D01*
X197042596Y-46265110D01*
X197037634Y-46268075D01*
X197025448Y-46289071D01*
X197007975Y-46329755D01*
X196988599Y-46382110D01*
X196984756Y-46393388D01*
X196959361Y-46463311D01*
X196927839Y-46542206D01*
X196896991Y-46613054D01*
X196896839Y-46613383D01*
X196845469Y-46724521D01*
X197014421Y-46973041D01*
X197183374Y-47221560D01*
X196966451Y-47438846D01*
X196900841Y-47503514D01*
X196841001Y-47560521D01*
X196790289Y-47606821D01*
X196752068Y-47639372D01*
X196729697Y-47655131D01*
X196726488Y-47656131D01*
X196707648Y-47648257D01*
X196669202Y-47626366D01*
X196615352Y-47593055D01*
X196550298Y-47550919D01*
X196479962Y-47503731D01*
X196408577Y-47455598D01*
X196344930Y-47413716D01*
X196293063Y-47380659D01*
X196257017Y-47359006D01*
X196240889Y-47351331D01*
X196221211Y-47357825D01*
X196183897Y-47374938D01*
X196136643Y-47399114D01*
X196131634Y-47401801D01*
X196067999Y-47433715D01*
X196024363Y-47449367D01*
X195997224Y-47449533D01*
X195983079Y-47434992D01*
X195982997Y-47434788D01*
X195975927Y-47417567D01*
X195959064Y-47376687D01*
X195933717Y-47315313D01*
X195901193Y-47236607D01*
X195862800Y-47143735D01*
X195819844Y-47039860D01*
X195778244Y-46939290D01*
X195732526Y-46828304D01*
X195690548Y-46725491D01*
X195653570Y-46634003D01*
X195622849Y-46556989D01*
X195599644Y-46497603D01*
X195585212Y-46458997D01*
X195580765Y-46444588D01*
X195591918Y-46428060D01*
X195621091Y-46401718D01*
X195659993Y-46372675D01*
X195770779Y-46280827D01*
X195857373Y-46175547D01*
X195918738Y-46059054D01*
X195953837Y-45933564D01*
X195961630Y-45801295D01*
X195955965Y-45740245D01*
X195925100Y-45613583D01*
X195871942Y-45501729D01*
X195799789Y-45405789D01*
X195711939Y-45326864D01*
X195611687Y-45266058D01*
X195502332Y-45224475D01*
X195387169Y-45203216D01*
X195269497Y-45203387D01*
X195152612Y-45226089D01*
X195039811Y-45272426D01*
X194934391Y-45343501D01*
X194890390Y-45383699D01*
X194806001Y-45486917D01*
X194747244Y-45599713D01*
X194713726Y-45718798D01*
X194705057Y-45840883D01*
X194720845Y-45962681D01*
X194760700Y-46080904D01*
X194824229Y-46192263D01*
X194911043Y-46293472D01*
X195008051Y-46372675D01*
X195048459Y-46402950D01*
X195077004Y-46429007D01*
X195087279Y-46444613D01*
X195081899Y-46461631D01*
X195066597Y-46502288D01*
X195042634Y-46563430D01*
X195011266Y-46641907D01*
X194973754Y-46734568D01*
X194931355Y-46838260D01*
X194889685Y-46939314D01*
X194843712Y-47050395D01*
X194801129Y-47153329D01*
X194763243Y-47244953D01*
X194731362Y-47322104D01*
X194706793Y-47381619D01*
X194690842Y-47420332D01*
X194684932Y-47434788D01*
X194670970Y-47449473D01*
X194643962Y-47449430D01*
X194600435Y-47433887D01*
X194536912Y-47402072D01*
X194536410Y-47401801D01*
X194488582Y-47377111D01*
X194449919Y-47359126D01*
X194428117Y-47351402D01*
X194427155Y-47351331D01*
X194410743Y-47359166D01*
X194374509Y-47380953D01*
X194322496Y-47414116D01*
X194258747Y-47456079D01*
X194188082Y-47503731D01*
X194116138Y-47551979D01*
X194051296Y-47593939D01*
X193997757Y-47627015D01*
X193959719Y-47648609D01*
X193941555Y-47656131D01*
X193924830Y-47646245D01*
X193891202Y-47618614D01*
X193844032Y-47576283D01*
X193786680Y-47522293D01*
X193722506Y-47459687D01*
X193701519Y-47438771D01*
X193484521Y-47221411D01*
X193649690Y-46979008D01*
X193699886Y-46904569D01*
X193743941Y-46837760D01*
X193779384Y-46782453D01*
X193803741Y-46742517D01*
X193814544Y-46721824D01*
X193814860Y-46720351D01*
X193809165Y-46700846D01*
X193793848Y-46661610D01*
X193771559Y-46609218D01*
X193755915Y-46574143D01*
X193726663Y-46506989D01*
X193699116Y-46439146D01*
X193677759Y-46381822D01*
X193671957Y-46364360D01*
X193655474Y-46317726D01*
X193639362Y-46281693D01*
X193630512Y-46268075D01*
X193610982Y-46259740D01*
X193568356Y-46247925D01*
X193508167Y-46233969D01*
X193435944Y-46219210D01*
X193403622Y-46213143D01*
X193321544Y-46198061D01*
X193242817Y-46183457D01*
X193175131Y-46170768D01*
X193126182Y-46161430D01*
X193116965Y-46159627D01*
X193040765Y-46144587D01*
X193040765Y-45827280D01*
X193040936Y-45722942D01*
X193041638Y-45644001D01*
X193043156Y-45586826D01*
X193045771Y-45547787D01*
X193049768Y-45523253D01*
X193055431Y-45509593D01*
X193063042Y-45503177D01*
X193066165Y-45501987D01*
X193085000Y-45497768D01*
X193126610Y-45489350D01*
X193185652Y-45477749D01*
X193256779Y-45463983D01*
X193334647Y-45449068D01*
X193413909Y-45434020D01*
X193489220Y-45419857D01*
X193555235Y-45407594D01*
X193606609Y-45398249D01*
X193637997Y-45392838D01*
X193644981Y-45391902D01*
X193651307Y-45379384D01*
X193665312Y-45346034D01*
X193684377Y-45298165D01*
X193691656Y-45279417D01*
X193721018Y-45206983D01*
X193755593Y-45126958D01*
X193786559Y-45059516D01*
X193809345Y-45007947D01*
X193824504Y-44965573D01*
X193829564Y-44939622D01*
X193828758Y-44936144D01*
X193818063Y-44919724D01*
X193793642Y-44883205D01*
X193758117Y-44830475D01*
X193714109Y-44765423D01*
X193664239Y-44691939D01*
X193654378Y-44677433D01*
X193596514Y-44591492D01*
X193553978Y-44526049D01*
X193525076Y-44478092D01*
X193508112Y-44444608D01*
X193501389Y-44422583D01*
X193503212Y-44409005D01*
X193503258Y-44408919D01*
X193517608Y-44391085D01*
X193549345Y-44356605D01*
X193595032Y-44309056D01*
X193651226Y-44252010D01*
X193714490Y-44189043D01*
X193721624Y-44182015D01*
X193801352Y-44104808D01*
X193862879Y-44048118D01*
X193907443Y-44010898D01*
X193936279Y-43992103D01*
X193948980Y-43989677D01*
X193967516Y-44000259D01*
X194005983Y-44024704D01*
X194060408Y-44060400D01*
X194126820Y-44104735D01*
X194201247Y-44155099D01*
X194218623Y-44166948D01*
X194465319Y-44335414D01*
X194576728Y-44284850D01*
X194644479Y-44255383D01*
X194717205Y-44225747D01*
X194779725Y-44202118D01*
X194782479Y-44201146D01*
X194831382Y-44183245D01*
X194869079Y-44168108D01*
X194887447Y-44158998D01*
X194887478Y-44158972D01*
X194893307Y-44142505D01*
X194903214Y-44102007D01*
X194916217Y-44042030D01*
X194931331Y-43967128D01*
X194947574Y-43881852D01*
X194948903Y-43874663D01*
X194965197Y-43786802D01*
X194980155Y-43707048D01*
X194992813Y-43640469D01*
X195002208Y-43592135D01*
X195007376Y-43567113D01*
X195007466Y-43566731D01*
X195010611Y-43556087D01*
X195016726Y-43548050D01*
X195029475Y-43542255D01*
X195052522Y-43538335D01*
X195089531Y-43535923D01*
X195144166Y-43534653D01*
X195220089Y-43534159D01*
X195320966Y-43534074D01*
X195334022Y-43534074D01*
X195437932Y-43534136D01*
G36*
X195437932Y-43534136D02*
G01*
X195516476Y-43534566D01*
X195573320Y-43535730D01*
X195612127Y-43537995D01*
X195636560Y-43541728D01*
X195650284Y-43547294D01*
X195656962Y-43555061D01*
X195660258Y-43565393D01*
X195660578Y-43566731D01*
X195665584Y-43590867D01*
X195674851Y-43638489D01*
X195687414Y-43704529D01*
X195702309Y-43783916D01*
X195718573Y-43871584D01*
X195719141Y-43874663D01*
X195735432Y-43960577D01*
X195750674Y-44036484D01*
X195763883Y-44097833D01*
X195774076Y-44140070D01*
X195780270Y-44158643D01*
X195780565Y-44158972D01*
X195798810Y-44168041D01*
X195836427Y-44183155D01*
X195885293Y-44201050D01*
X195885565Y-44201146D01*
X195947115Y-44224281D01*
X196019679Y-44253753D01*
X196088079Y-44283385D01*
X196091316Y-44284850D01*
X196202724Y-44335414D01*
X196449421Y-44166948D01*
X196525099Y-44115591D01*
X196593653Y-44069677D01*
X196651110Y-44031818D01*
X196693498Y-44004625D01*
X196716847Y-43990709D01*
X196719064Y-43989677D01*
X196736032Y-43994272D01*
X196767723Y-44016443D01*
X196815374Y-44057235D01*
X196880220Y-44117693D01*
X196946419Y-44182015D01*
X197010236Y-44245400D01*
X197067351Y-44303239D01*
X197114327Y-44351963D01*
X197147725Y-44387998D01*
X197164107Y-44407772D01*
X197164716Y-44408790D01*
X197166527Y-44422360D01*
X197159705Y-44444521D01*
X197142562Y-44478266D01*
X197113415Y-44526588D01*
X197070577Y-44592480D01*
X197013470Y-44677305D01*
X196962788Y-44751965D01*
X196917483Y-44818928D01*
X196880172Y-44874304D01*
X196853474Y-44914208D01*
X196840007Y-44934750D01*
X196839159Y-44936144D01*
X196840803Y-44955826D01*
X196853267Y-44994081D01*
X196874070Y-45043677D01*
X196881484Y-45059516D01*
X196913836Y-45130078D01*
X196948350Y-45210141D01*
X196976387Y-45279417D01*
X196996590Y-45330833D01*
X197012637Y-45369907D01*
X197021910Y-45390329D01*
X197023063Y-45391902D01*
X197040118Y-45394509D01*
X197080320Y-45401651D01*
X197138324Y-45412311D01*
X197208785Y-45425473D01*
X197286357Y-45440121D01*
X197365694Y-45455237D01*
X197441453Y-45469806D01*
X197508286Y-45482810D01*
X197560850Y-45493233D01*
X197593798Y-45500058D01*
X197601879Y-45501987D01*
X197610227Y-45506750D01*
X197616528Y-45517506D01*
X197621067Y-45537886D01*
X197624126Y-45571522D01*
X197625989Y-45622043D01*
X197626940Y-45693080D01*
X197627262Y-45788264D01*
X197627279Y-45827280D01*
X197627279Y-46144587D01*
X197551079Y-46159627D01*
X197508685Y-46167783D01*
X197445422Y-46179687D01*
X197368984Y-46193904D01*
X197287065Y-46208998D01*
X197264422Y-46213143D01*
X197188828Y-46227841D01*
X197122975Y-46242293D01*
X197072388Y-46255163D01*
X197042596Y-46265110D01*
X197037634Y-46268075D01*
X197025448Y-46289071D01*
X197007975Y-46329755D01*
X196988599Y-46382110D01*
X196984756Y-46393388D01*
X196959361Y-46463311D01*
X196927839Y-46542206D01*
X196896991Y-46613054D01*
X196896839Y-46613383D01*
X196845469Y-46724521D01*
X197014421Y-46973041D01*
X197183374Y-47221560D01*
X196966451Y-47438846D01*
X196900841Y-47503514D01*
X196841001Y-47560521D01*
X196790289Y-47606821D01*
X196752068Y-47639372D01*
X196729697Y-47655131D01*
X196726488Y-47656131D01*
X196707648Y-47648257D01*
X196669202Y-47626366D01*
X196615352Y-47593055D01*
X196550298Y-47550919D01*
X196479962Y-47503731D01*
X196408577Y-47455598D01*
X196344930Y-47413716D01*
X196293063Y-47380659D01*
X196257017Y-47359006D01*
X196240889Y-47351331D01*
X196221211Y-47357825D01*
X196183897Y-47374938D01*
X196136643Y-47399114D01*
X196131634Y-47401801D01*
X196067999Y-47433715D01*
X196024363Y-47449367D01*
X195997224Y-47449533D01*
X195983079Y-47434992D01*
X195982997Y-47434788D01*
X195975927Y-47417567D01*
X195959064Y-47376687D01*
X195933717Y-47315313D01*
X195901193Y-47236607D01*
X195862800Y-47143735D01*
X195819844Y-47039860D01*
X195778244Y-46939290D01*
X195732526Y-46828304D01*
X195690548Y-46725491D01*
X195653570Y-46634003D01*
X195622849Y-46556989D01*
X195599644Y-46497603D01*
X195585212Y-46458997D01*
X195580765Y-46444588D01*
X195591918Y-46428060D01*
X195621091Y-46401718D01*
X195659993Y-46372675D01*
X195770779Y-46280827D01*
X195857373Y-46175547D01*
X195918738Y-46059054D01*
X195953837Y-45933564D01*
X195961630Y-45801295D01*
X195955965Y-45740245D01*
X195925100Y-45613583D01*
X195871942Y-45501729D01*
X195799789Y-45405789D01*
X195711939Y-45326864D01*
X195611687Y-45266058D01*
X195502332Y-45224475D01*
X195387169Y-45203216D01*
X195269497Y-45203387D01*
X195152612Y-45226089D01*
X195039811Y-45272426D01*
X194934391Y-45343501D01*
X194890390Y-45383699D01*
X194806001Y-45486917D01*
X194747244Y-45599713D01*
X194713726Y-45718798D01*
X194705057Y-45840883D01*
X194720845Y-45962681D01*
X194760700Y-46080904D01*
X194824229Y-46192263D01*
X194911043Y-46293472D01*
X195008051Y-46372675D01*
X195048459Y-46402950D01*
X195077004Y-46429007D01*
X195087279Y-46444613D01*
X195081899Y-46461631D01*
X195066597Y-46502288D01*
X195042634Y-46563430D01*
X195011266Y-46641907D01*
X194973754Y-46734568D01*
X194931355Y-46838260D01*
X194889685Y-46939314D01*
X194843712Y-47050395D01*
X194801129Y-47153329D01*
X194763243Y-47244953D01*
X194731362Y-47322104D01*
X194706793Y-47381619D01*
X194690842Y-47420332D01*
X194684932Y-47434788D01*
X194670970Y-47449473D01*
X194643962Y-47449430D01*
X194600435Y-47433887D01*
X194536912Y-47402072D01*
X194536410Y-47401801D01*
X194488582Y-47377111D01*
X194449919Y-47359126D01*
X194428117Y-47351402D01*
X194427155Y-47351331D01*
X194410743Y-47359166D01*
X194374509Y-47380953D01*
X194322496Y-47414116D01*
X194258747Y-47456079D01*
X194188082Y-47503731D01*
X194116138Y-47551979D01*
X194051296Y-47593939D01*
X193997757Y-47627015D01*
X193959719Y-47648609D01*
X193941555Y-47656131D01*
X193924830Y-47646245D01*
X193891202Y-47618614D01*
X193844032Y-47576283D01*
X193786680Y-47522293D01*
X193722506Y-47459687D01*
X193701519Y-47438771D01*
X193484521Y-47221411D01*
X193649690Y-46979008D01*
X193699886Y-46904569D01*
X193743941Y-46837760D01*
X193779384Y-46782453D01*
X193803741Y-46742517D01*
X193814544Y-46721824D01*
X193814860Y-46720351D01*
X193809165Y-46700846D01*
X193793848Y-46661610D01*
X193771559Y-46609218D01*
X193755915Y-46574143D01*
X193726663Y-46506989D01*
X193699116Y-46439146D01*
X193677759Y-46381822D01*
X193671957Y-46364360D01*
X193655474Y-46317726D01*
X193639362Y-46281693D01*
X193630512Y-46268075D01*
X193610982Y-46259740D01*
X193568356Y-46247925D01*
X193508167Y-46233969D01*
X193435944Y-46219210D01*
X193403622Y-46213143D01*
X193321544Y-46198061D01*
X193242817Y-46183457D01*
X193175131Y-46170768D01*
X193126182Y-46161430D01*
X193116965Y-46159627D01*
X193040765Y-46144587D01*
X193040765Y-45827280D01*
X193040936Y-45722942D01*
X193041638Y-45644001D01*
X193043156Y-45586826D01*
X193045771Y-45547787D01*
X193049768Y-45523253D01*
X193055431Y-45509593D01*
X193063042Y-45503177D01*
X193066165Y-45501987D01*
X193085000Y-45497768D01*
X193126610Y-45489350D01*
X193185652Y-45477749D01*
X193256779Y-45463983D01*
X193334647Y-45449068D01*
X193413909Y-45434020D01*
X193489220Y-45419857D01*
X193555235Y-45407594D01*
X193606609Y-45398249D01*
X193637997Y-45392838D01*
X193644981Y-45391902D01*
X193651307Y-45379384D01*
X193665312Y-45346034D01*
X193684377Y-45298165D01*
X193691656Y-45279417D01*
X193721018Y-45206983D01*
X193755593Y-45126958D01*
X193786559Y-45059516D01*
X193809345Y-45007947D01*
X193824504Y-44965573D01*
X193829564Y-44939622D01*
X193828758Y-44936144D01*
X193818063Y-44919724D01*
X193793642Y-44883205D01*
X193758117Y-44830475D01*
X193714109Y-44765423D01*
X193664239Y-44691939D01*
X193654378Y-44677433D01*
X193596514Y-44591492D01*
X193553978Y-44526049D01*
X193525076Y-44478092D01*
X193508112Y-44444608D01*
X193501389Y-44422583D01*
X193503212Y-44409005D01*
X193503258Y-44408919D01*
X193517608Y-44391085D01*
X193549345Y-44356605D01*
X193595032Y-44309056D01*
X193651226Y-44252010D01*
X193714490Y-44189043D01*
X193721624Y-44182015D01*
X193801352Y-44104808D01*
X193862879Y-44048118D01*
X193907443Y-44010898D01*
X193936279Y-43992103D01*
X193948980Y-43989677D01*
X193967516Y-44000259D01*
X194005983Y-44024704D01*
X194060408Y-44060400D01*
X194126820Y-44104735D01*
X194201247Y-44155099D01*
X194218623Y-44166948D01*
X194465319Y-44335414D01*
X194576728Y-44284850D01*
X194644479Y-44255383D01*
X194717205Y-44225747D01*
X194779725Y-44202118D01*
X194782479Y-44201146D01*
X194831382Y-44183245D01*
X194869079Y-44168108D01*
X194887447Y-44158998D01*
X194887478Y-44158972D01*
X194893307Y-44142505D01*
X194903214Y-44102007D01*
X194916217Y-44042030D01*
X194931331Y-43967128D01*
X194947574Y-43881852D01*
X194948903Y-43874663D01*
X194965197Y-43786802D01*
X194980155Y-43707048D01*
X194992813Y-43640469D01*
X195002208Y-43592135D01*
X195007376Y-43567113D01*
X195007466Y-43566731D01*
X195010611Y-43556087D01*
X195016726Y-43548050D01*
X195029475Y-43542255D01*
X195052522Y-43538335D01*
X195089531Y-43535923D01*
X195144166Y-43534653D01*
X195220089Y-43534159D01*
X195320966Y-43534074D01*
X195334022Y-43534074D01*
X195437932Y-43534136D01*
G37*
%TD*%
M02*
