%TF.GenerationSoftware,KiCad,Pcbnew,7.0.5*%
%TF.CreationDate,2023-07-07T22:00:18-05:00*%
%TF.ProjectId,leapsd,6c656170-7364-42e6-9b69-6361645f7063,rev?*%
%TF.SameCoordinates,Original*%
%TF.FileFunction,Copper,L1,Top*%
%TF.FilePolarity,Positive*%
%FSLAX46Y46*%
G04 Gerber Fmt 4.6, Leading zero omitted, Abs format (unit mm)*
G04 Created by KiCad (PCBNEW 7.0.5) date 2023-07-07 22:00:18*
%MOMM*%
%LPD*%
G01*
G04 APERTURE LIST*
G04 Aperture macros list*
%AMRoundRect*
0 Rectangle with rounded corners*
0 $1 Rounding radius*
0 $2 $3 $4 $5 $6 $7 $8 $9 X,Y pos of 4 corners*
0 Add a 4 corners polygon primitive as box body*
4,1,4,$2,$3,$4,$5,$6,$7,$8,$9,$2,$3,0*
0 Add four circle primitives for the rounded corners*
1,1,$1+$1,$2,$3*
1,1,$1+$1,$4,$5*
1,1,$1+$1,$6,$7*
1,1,$1+$1,$8,$9*
0 Add four rect primitives between the rounded corners*
20,1,$1+$1,$2,$3,$4,$5,0*
20,1,$1+$1,$4,$5,$6,$7,0*
20,1,$1+$1,$6,$7,$8,$9,0*
20,1,$1+$1,$8,$9,$2,$3,0*%
G04 Aperture macros list end*
%TA.AperFunction,SMDPad,CuDef*%
%ADD10R,0.001000X0.001000*%
%TD*%
%TA.AperFunction,ConnectorPad*%
%ADD11R,1.000000X8.000000*%
%TD*%
%TA.AperFunction,SMDPad,CuDef*%
%ADD12RoundRect,0.200000X-0.200000X-0.275000X0.200000X-0.275000X0.200000X0.275000X-0.200000X0.275000X0*%
%TD*%
%TA.AperFunction,SMDPad,CuDef*%
%ADD13R,1.500000X0.900000*%
%TD*%
%TA.AperFunction,SMDPad,CuDef*%
%ADD14R,0.900000X1.500000*%
%TD*%
%TA.AperFunction,SMDPad,CuDef*%
%ADD15R,1.050000X1.050000*%
%TD*%
%TA.AperFunction,HeatsinkPad*%
%ADD16C,0.600000*%
%TD*%
%TA.AperFunction,SMDPad,CuDef*%
%ADD17R,4.200000X4.200000*%
%TD*%
%TA.AperFunction,SMDPad,CuDef*%
%ADD18R,0.225000X0.663000*%
%TD*%
%TA.AperFunction,SMDPad,CuDef*%
%ADD19R,0.225000X0.563000*%
%TD*%
%TA.AperFunction,SMDPad,CuDef*%
%ADD20R,0.563000X0.225000*%
%TD*%
%TA.AperFunction,SMDPad,CuDef*%
%ADD21R,0.850000X1.100000*%
%TD*%
%TA.AperFunction,SMDPad,CuDef*%
%ADD22R,0.750000X1.100000*%
%TD*%
%TA.AperFunction,SMDPad,CuDef*%
%ADD23R,1.200000X1.000000*%
%TD*%
%TA.AperFunction,SMDPad,CuDef*%
%ADD24R,1.550000X1.350000*%
%TD*%
%TA.AperFunction,SMDPad,CuDef*%
%ADD25R,1.900000X1.350000*%
%TD*%
%TA.AperFunction,SMDPad,CuDef*%
%ADD26R,1.170000X1.800000*%
%TD*%
%TA.AperFunction,ViaPad*%
%ADD27C,0.800000*%
%TD*%
%TA.AperFunction,Conductor*%
%ADD28C,0.200000*%
%TD*%
%TA.AperFunction,Conductor*%
%ADD29C,0.250000*%
%TD*%
G04 APERTURE END LIST*
D10*
%TO.P,1,0*%
%TO.N,N/C*%
X159900000Y-39200000D03*
X197600000Y-39200000D03*
D11*
%TO.P,1,1*%
X159900000Y-39200000D03*
%TO.P,1,2*%
X161200000Y-39200000D03*
%TO.P,1,3*%
X162500000Y-39200000D03*
%TO.P,1,4*%
X163800000Y-39200000D03*
%TO.P,1,5*%
X165100000Y-39200000D03*
%TO.P,1,6*%
X166400000Y-39200000D03*
%TO.P,1,7*%
X167700000Y-39200000D03*
%TO.P,1,8*%
X169000000Y-39200000D03*
%TO.P,1,9*%
X170300000Y-39200000D03*
%TO.P,1,10*%
X171600000Y-39200000D03*
%TO.P,1,11*%
X172900000Y-39200000D03*
%TO.P,1,12*%
X174200000Y-39200000D03*
%TO.P,1,13*%
X175500000Y-39200000D03*
%TO.P,1,14*%
X176800000Y-39200000D03*
%TO.P,1,15*%
X178100000Y-39200000D03*
%TO.P,1,16*%
X179400000Y-39200000D03*
%TO.P,1,17*%
X180700000Y-39200000D03*
%TO.P,1,18*%
X182000000Y-39200000D03*
%TO.P,1,19*%
X183300000Y-39200000D03*
%TO.P,1,20*%
X184600000Y-39200000D03*
%TO.P,1,21*%
X185900000Y-39200000D03*
%TO.P,1,22*%
X187200000Y-39200000D03*
%TO.P,1,23*%
X188500000Y-39200000D03*
%TO.P,1,24*%
X189800000Y-39200000D03*
%TO.P,1,25*%
X191100000Y-39200000D03*
%TO.P,1,26*%
X192400000Y-39200000D03*
%TO.P,1,27*%
X193700000Y-39200000D03*
%TO.P,1,28*%
X195000000Y-39200000D03*
%TO.P,1,29*%
X196300000Y-39200000D03*
%TO.P,1,30*%
X197600000Y-39200000D03*
%TD*%
D12*
%TO.P,REF\u002A\u002A,1*%
%TO.N,N/C*%
X158175000Y-56000000D03*
%TO.P,REF\u002A\u002A,2*%
X159825000Y-56000000D03*
%TD*%
%TO.P,REF\u002A\u002A,1*%
%TO.N,N/C*%
X158175000Y-58000000D03*
%TO.P,REF\u002A\u002A,2*%
X159825000Y-58000000D03*
%TD*%
%TO.P,REF\u002A\u002A,1*%
%TO.N,N/C*%
X158175000Y-52000000D03*
%TO.P,REF\u002A\u002A,2*%
X159825000Y-52000000D03*
%TD*%
%TO.P,REF\u002A\u002A,1*%
%TO.N,N/C*%
X158175000Y-54000000D03*
%TO.P,REF\u002A\u002A,2*%
X159825000Y-54000000D03*
%TD*%
D13*
%TO.P,ESP32,1*%
%TO.N,N/C*%
X180125632Y-64075971D03*
%TO.P,ESP32,2*%
X180125632Y-62805971D03*
%TO.P,ESP32,3*%
X180125632Y-61535971D03*
%TO.P,ESP32,4*%
X180125632Y-60265971D03*
%TO.P,ESP32,5*%
X180125632Y-58995971D03*
%TO.P,ESP32,6*%
X180125632Y-57725971D03*
%TO.P,ESP32,7*%
X180125632Y-56455971D03*
%TO.P,ESP32,8*%
X180125632Y-55185971D03*
%TO.P,ESP32,9*%
X180125632Y-53915971D03*
%TO.P,ESP32,10*%
X180125632Y-52645971D03*
%TO.P,ESP32,11*%
X180125632Y-51375971D03*
%TO.P,ESP32,12*%
X180125632Y-50105971D03*
%TO.P,ESP32,13*%
X180125632Y-48835971D03*
%TO.P,ESP32,14*%
X180125632Y-47565971D03*
D14*
%TO.P,ESP32,15*%
X177085632Y-46315971D03*
%TO.P,ESP32,16*%
X175815632Y-46315971D03*
%TO.P,ESP32,17*%
X174545632Y-46315971D03*
%TO.P,ESP32,18*%
X173275632Y-46315971D03*
%TO.P,ESP32,19*%
X172005632Y-46315971D03*
%TO.P,ESP32,20*%
X170735632Y-46315971D03*
%TO.P,ESP32,21*%
X169465632Y-46315971D03*
%TO.P,ESP32,22*%
X168195632Y-46315971D03*
%TO.P,ESP32,23*%
X166925632Y-46315971D03*
%TO.P,ESP32,24*%
X165655632Y-46315971D03*
D13*
%TO.P,ESP32,25*%
X162625632Y-47565971D03*
%TO.P,ESP32,26*%
X162625632Y-48835971D03*
%TO.P,ESP32,27*%
X162625632Y-50105971D03*
%TO.P,ESP32,28*%
X162625632Y-51375971D03*
%TO.P,ESP32,29*%
X162625632Y-52645971D03*
%TO.P,ESP32,30*%
X162625632Y-53915971D03*
%TO.P,ESP32,31*%
X162625632Y-55185971D03*
%TO.P,ESP32,32*%
X162625632Y-56455971D03*
%TO.P,ESP32,33*%
X162625632Y-57725971D03*
%TO.P,ESP32,34*%
X162625632Y-58995971D03*
%TO.P,ESP32,35*%
X162625632Y-60265971D03*
%TO.P,ESP32,36*%
X162625632Y-61535971D03*
%TO.P,ESP32,37*%
X162625632Y-62805971D03*
%TO.P,ESP32,38*%
X162625632Y-64075971D03*
D15*
%TO.P,ESP32,39*%
X173580632Y-58260971D03*
D16*
X173580632Y-57498471D03*
D15*
X173580632Y-56735971D03*
D16*
X173580632Y-55973471D03*
D15*
X173580632Y-55210971D03*
D16*
X172818132Y-58260971D03*
X172818132Y-56735971D03*
X172818132Y-55210971D03*
D15*
X172055632Y-58260971D03*
D16*
X172055632Y-57498471D03*
D15*
X172055632Y-56735971D03*
D17*
X172055632Y-56735971D03*
D16*
X172055632Y-55973471D03*
D15*
X172055632Y-55210971D03*
D16*
X171293132Y-58260971D03*
X171293132Y-56735971D03*
X171293132Y-55210971D03*
D15*
X170530632Y-58260971D03*
D16*
X170530632Y-57498471D03*
D15*
X170530632Y-56735971D03*
D16*
X170530632Y-55973471D03*
D15*
X170530632Y-55210971D03*
%TD*%
D18*
%TO.P,REF\u002A\u002A,1*%
%TO.N,N/C*%
X191000000Y-48931500D03*
D19*
%TO.P,REF\u002A\u002A,2*%
X190600000Y-48881500D03*
%TO.P,REF\u002A\u002A,3*%
X190200000Y-48881500D03*
%TO.P,REF\u002A\u002A,4*%
X189800000Y-48881500D03*
%TO.P,REF\u002A\u002A,5*%
X189400000Y-48881500D03*
%TO.P,REF\u002A\u002A,6*%
X189000000Y-48881500D03*
D20*
%TO.P,REF\u002A\u002A,7*%
X188431500Y-49000000D03*
%TO.P,REF\u002A\u002A,8*%
X188431500Y-49400000D03*
%TO.P,REF\u002A\u002A,9*%
X188431500Y-49800000D03*
%TO.P,REF\u002A\u002A,10*%
X188431500Y-50200000D03*
%TO.P,REF\u002A\u002A,11*%
X188431500Y-50600000D03*
%TO.P,REF\u002A\u002A,12*%
X188431500Y-51000000D03*
D19*
%TO.P,REF\u002A\u002A,13*%
X189000000Y-51118500D03*
%TO.P,REF\u002A\u002A,14*%
X189400000Y-51118500D03*
%TO.P,REF\u002A\u002A,15*%
X189800000Y-51118500D03*
%TO.P,REF\u002A\u002A,16*%
X190200000Y-51118500D03*
%TO.P,REF\u002A\u002A,17*%
X190600000Y-51118500D03*
%TO.P,REF\u002A\u002A,18*%
X191000000Y-51118500D03*
D20*
%TO.P,REF\u002A\u002A,19*%
X191568500Y-51000000D03*
%TO.P,REF\u002A\u002A,20*%
X191568500Y-50600000D03*
%TO.P,REF\u002A\u002A,21*%
X191568500Y-50200000D03*
%TO.P,REF\u002A\u002A,22*%
X191568500Y-49800000D03*
%TO.P,REF\u002A\u002A,23*%
X191568500Y-49400000D03*
%TO.P,REF\u002A\u002A,24*%
X191568500Y-49000000D03*
%TD*%
D21*
%TO.P,Micro SD,1*%
%TO.N,N/C*%
X192105000Y-66250000D03*
%TO.P,Micro SD,2*%
X191005000Y-66250000D03*
%TO.P,Micro SD,3*%
X189905000Y-66250000D03*
%TO.P,Micro SD,4*%
X188805000Y-66250000D03*
%TO.P,Micro SD,5*%
X187705000Y-66250000D03*
%TO.P,Micro SD,6*%
X186605000Y-66250000D03*
%TO.P,Micro SD,7*%
X185505000Y-66250000D03*
D22*
%TO.P,Micro SD,8*%
X184455000Y-66250000D03*
D23*
%TO.P,Micro SD,9*%
X194740000Y-60100000D03*
%TO.P,Micro SD,10*%
X194740000Y-56400000D03*
D24*
%TO.P,Micro SD,11*%
X194565000Y-66125000D03*
D25*
X191240000Y-55425000D03*
X185270000Y-55425000D03*
D26*
X183245000Y-65900000D03*
%TD*%
D12*
%TO.P,10k,1*%
%TO.N,N/C*%
X158175000Y-50000000D03*
%TO.P,10k,2*%
X159825000Y-50000000D03*
%TD*%
D27*
%TO.N,*%
X186000000Y-52000000D03*
X167410468Y-47997584D03*
X169000000Y-44800000D03*
X175799262Y-50854730D03*
X167459868Y-48834485D03*
X181583861Y-62750160D03*
X186625169Y-64875008D03*
X197624385Y-44459797D03*
X190406262Y-44000000D03*
X181583861Y-64041734D03*
X187500106Y-49792750D03*
X182000000Y-43800000D03*
X170905954Y-50495477D03*
X191100000Y-44800000D03*
X188000000Y-44000000D03*
X186289331Y-49251353D03*
X190000000Y-50000000D03*
X187390686Y-51488444D03*
X192400000Y-44000000D03*
X187482218Y-48904763D03*
X189628065Y-52665125D03*
X185282897Y-50894915D03*
X192541414Y-49209458D03*
X194559569Y-50629091D03*
%TD*%
D28*
%TO.N,*%
X188875579Y-64471262D02*
X187705000Y-65641841D01*
X187507356Y-49800000D02*
X187500106Y-49792750D01*
X189257496Y-54749732D02*
X189257496Y-63950465D01*
D29*
X186289331Y-50215790D02*
X186361664Y-50288123D01*
D28*
X189800000Y-45200000D02*
X190406262Y-44593738D01*
X171336949Y-51181015D02*
X171517964Y-51000000D01*
D29*
X190200000Y-48881500D02*
X190200000Y-45700000D01*
D28*
X190403247Y-64957338D02*
X191097642Y-64262943D01*
D29*
X189800000Y-52493190D02*
X189628065Y-52665125D01*
X170300000Y-39200000D02*
X170300000Y-44100000D01*
D28*
X189986610Y-54020618D02*
X189257496Y-54749732D01*
X192105000Y-66250000D02*
X193944662Y-64410338D01*
X190542126Y-54020618D02*
X189986610Y-54020618D01*
X188959815Y-52562588D02*
X185483821Y-52562588D01*
X184600000Y-43441663D02*
X182833345Y-45208318D01*
D29*
X166264012Y-59290538D02*
X164672690Y-60881860D01*
D28*
X189743572Y-54819172D02*
X189743572Y-64471262D01*
X196144666Y-43743815D02*
X196300000Y-43588481D01*
X185282897Y-52361664D02*
X185282897Y-50894915D01*
X189917171Y-65339255D02*
X190611566Y-65339255D01*
D29*
X181589803Y-61535971D02*
X181589803Y-62744218D01*
D28*
X189400000Y-51118500D02*
X189400000Y-52122403D01*
X164786811Y-55802277D02*
X164847089Y-55741999D01*
X188771419Y-63533828D02*
X186097999Y-63533828D01*
D29*
X186361664Y-50288123D02*
X186602773Y-50529232D01*
D28*
X164834628Y-58999002D02*
X164831597Y-58995971D01*
X191000000Y-54326579D02*
X190889324Y-54437255D01*
X162625632Y-48835971D02*
X161415435Y-48835971D01*
D29*
X159800798Y-45300976D02*
X159700805Y-45400969D01*
D28*
X188805000Y-65195000D02*
X189042662Y-64957338D01*
X175653992Y-51000000D02*
X175799262Y-50854730D01*
D29*
X181900000Y-44100000D02*
X182000000Y-44000000D01*
D28*
X192541414Y-49209458D02*
X193843171Y-49209458D01*
X189042662Y-64957338D02*
X190403247Y-64957338D01*
D29*
X159700805Y-45400969D02*
X159700805Y-49875805D01*
X159860563Y-57964437D02*
X159825000Y-58000000D01*
D28*
X191479560Y-65096217D02*
X191005000Y-65570777D01*
D29*
X180694354Y-47565971D02*
X181502706Y-48374323D01*
X193700000Y-43656832D02*
X193700000Y-39200000D01*
X164672690Y-60881860D02*
X161345381Y-60881860D01*
D28*
X165334592Y-51582864D02*
X165292928Y-51541200D01*
X185505000Y-64751782D02*
X185505000Y-66250000D01*
X170905954Y-48238694D02*
X170667260Y-48000000D01*
D29*
X172055632Y-64020339D02*
X172055632Y-56735971D01*
X182000000Y-43800000D02*
X182000000Y-39200000D01*
D28*
X164887273Y-51181015D02*
X171336949Y-51181015D01*
D29*
X158175000Y-56000000D02*
X158175000Y-58000000D01*
D28*
X170667260Y-48000000D02*
X168000000Y-48000000D01*
D29*
X190600000Y-48881500D02*
X190600000Y-46756832D01*
D28*
X189000000Y-52000000D02*
X186000000Y-52000000D01*
X165292928Y-58540702D02*
X164834628Y-58999002D01*
D29*
X166950288Y-45300976D02*
X159800798Y-45300976D01*
X167408052Y-48000000D02*
X167410468Y-47997584D01*
X170530632Y-56735971D02*
X170530632Y-55210971D01*
D28*
X190125489Y-54437255D02*
X189743572Y-54819172D01*
D29*
X187200000Y-44057750D02*
X187200000Y-39200000D01*
X166925632Y-46315971D02*
X166925632Y-45325632D01*
D28*
X171517964Y-51000000D02*
X175653992Y-51000000D01*
D29*
X191000000Y-48931500D02*
X191000000Y-47000000D01*
D28*
X190200000Y-53633629D02*
X190160209Y-53673420D01*
D29*
X166264012Y-52443033D02*
X166264012Y-59290538D01*
D28*
X193800000Y-49800000D02*
X191568500Y-49800000D01*
X193944662Y-49944662D02*
X193800000Y-49800000D01*
X165792893Y-52166155D02*
X165792893Y-58832347D01*
X195083784Y-43743815D02*
X196144666Y-43743815D01*
X189743572Y-64471262D02*
X188875579Y-64471262D01*
X190889324Y-54437255D02*
X190125489Y-54437255D01*
X190611566Y-65339255D02*
X191097642Y-64853179D01*
D29*
X180125632Y-47565971D02*
X179121793Y-47565971D01*
X161350687Y-53913272D02*
X161350687Y-52474313D01*
D28*
X159825000Y-56000000D02*
X161000000Y-56000000D01*
D29*
X168000000Y-48000000D02*
X168000000Y-47647389D01*
D28*
X193843171Y-49209458D02*
X194559569Y-49925856D01*
D29*
X180125632Y-64075971D02*
X181549624Y-64075971D01*
X188431500Y-49000000D02*
X188431500Y-46036689D01*
D28*
X165292928Y-51541200D02*
X165292928Y-58540702D01*
X191568500Y-47259099D02*
X195083784Y-43743815D01*
D29*
X191100000Y-39200000D02*
X191100000Y-44800000D01*
X161224827Y-57964437D02*
X159860563Y-57964437D01*
X166000000Y-48000000D02*
X167408052Y-48000000D01*
X161585603Y-46315971D02*
X165655632Y-46315971D01*
D28*
X191568500Y-50200000D02*
X193387700Y-50200000D01*
X189400000Y-48881500D02*
X189400000Y-45000000D01*
D29*
X172055632Y-58260971D02*
X170530632Y-58260971D01*
D28*
X188431500Y-50200000D02*
X187824110Y-50200000D01*
D29*
X173580632Y-55210971D02*
X173580632Y-56735971D01*
X158175000Y-54000000D02*
X158175000Y-56000000D01*
X168000000Y-47647389D02*
X167694378Y-47341767D01*
D28*
X167459868Y-48834485D02*
X167458382Y-48835971D01*
D29*
X186289331Y-49251353D02*
X186289331Y-50215790D01*
X170300000Y-44100000D02*
X177000000Y-44100000D01*
D28*
X164847089Y-51221199D02*
X164887273Y-51181015D01*
D29*
X166971049Y-46361388D02*
X166925632Y-46315971D01*
D28*
X189813012Y-53673420D02*
X188771419Y-54715013D01*
X193493305Y-50305605D02*
X193493305Y-64158784D01*
X191097642Y-64853179D02*
X191097642Y-64714300D01*
X192590592Y-63811586D02*
X192590592Y-51173598D01*
D29*
X161321270Y-60905971D02*
X161224827Y-60809528D01*
D28*
X192521152Y-65130937D02*
X191514280Y-65130937D01*
D29*
X190200000Y-45700000D02*
X191100000Y-44800000D01*
D28*
X193944662Y-64410338D02*
X193944662Y-49944662D01*
X191097642Y-64714300D02*
X192208674Y-64714300D01*
D29*
X160401253Y-52000000D02*
X160850723Y-51550530D01*
D28*
X188771419Y-54715013D02*
X188771419Y-63533828D01*
D29*
X165655632Y-46315971D02*
X165655632Y-47655632D01*
D28*
X188431500Y-49800000D02*
X187507356Y-49800000D01*
X189000000Y-51118500D02*
X189000000Y-52000000D01*
X170905954Y-50495477D02*
X170905954Y-48238694D01*
D29*
X177085632Y-46315971D02*
X177085632Y-44185632D01*
D28*
X189905000Y-65351426D02*
X189917171Y-65339255D01*
X186349807Y-50836241D02*
X184349537Y-48835971D01*
D29*
X170530632Y-55210971D02*
X172055632Y-55210971D01*
X177000000Y-44100000D02*
X181900000Y-44100000D01*
D28*
X178167011Y-47249839D02*
X177625383Y-47791467D01*
X193387700Y-50200000D02*
X193493305Y-50305605D01*
X189800000Y-44600000D02*
X189800000Y-39200000D01*
D29*
X177085632Y-44185632D02*
X177000000Y-44100000D01*
D28*
X196300000Y-43588481D02*
X196300000Y-39200000D01*
D29*
X160850723Y-51550530D02*
X160850723Y-47050851D01*
X186602773Y-50529232D02*
X187494878Y-50529232D01*
D28*
X161197723Y-55802277D02*
X164786811Y-55802277D01*
D29*
X167694378Y-47341767D02*
X166971049Y-47341767D01*
X189000000Y-45857750D02*
X187200000Y-44057750D01*
X166925632Y-45325632D02*
X166950288Y-45300976D01*
X178536478Y-48151286D02*
X178536478Y-50899933D01*
X158000926Y-49825926D02*
X158175000Y-50000000D01*
D28*
X190600000Y-51118500D02*
X190600000Y-53962744D01*
X175815632Y-50838360D02*
X175815632Y-46315971D01*
X178708639Y-45208318D02*
X178708639Y-47374830D01*
X176750446Y-52041164D02*
X165917884Y-52041164D01*
X187705000Y-65641841D02*
X187705000Y-66250000D01*
X188023290Y-50600000D02*
X187787049Y-50836241D01*
X186306317Y-63950465D02*
X185505000Y-64751782D01*
X189800000Y-48881500D02*
X189800000Y-45200000D01*
X178167011Y-50624599D02*
X176750446Y-52041164D01*
X186097999Y-63533828D02*
X184455000Y-65176827D01*
X193007229Y-63985185D02*
X193076668Y-63985185D01*
X184349537Y-48835971D02*
X180125632Y-48835971D01*
D29*
X168998988Y-44801012D02*
X158000926Y-44801012D01*
D28*
X193493305Y-64158784D02*
X192521152Y-65130937D01*
X178125347Y-50582935D02*
X178167011Y-50624599D01*
D29*
X159825000Y-54000000D02*
X161304775Y-54000000D01*
X180125632Y-62805971D02*
X181528050Y-62805971D01*
D28*
X192590592Y-51173598D02*
X192416994Y-51000000D01*
X189400000Y-49400000D02*
X190000000Y-50000000D01*
X191568500Y-49000000D02*
X191568500Y-47259099D01*
X186605000Y-64895177D02*
X186625169Y-64875008D01*
D29*
X180125632Y-47565971D02*
X180694354Y-47565971D01*
X158175000Y-50000000D02*
X158175000Y-52000000D01*
D28*
X188212873Y-51218627D02*
X187660503Y-51218627D01*
X189905000Y-66250000D02*
X189905000Y-65351426D01*
X197600000Y-44435412D02*
X197600000Y-39200000D01*
X164847089Y-55741999D02*
X164847089Y-51221199D01*
D29*
X191000000Y-47000000D02*
X195000000Y-43000000D01*
X189800000Y-51118500D02*
X189800000Y-52493190D01*
D28*
X183300000Y-43783398D02*
X182333381Y-44750017D01*
X192243394Y-64749020D02*
X193007229Y-63985185D01*
D29*
X178536478Y-50899933D02*
X178560589Y-50924044D01*
D28*
X164359269Y-60265971D02*
X162625632Y-60265971D01*
D29*
X190600000Y-46756832D02*
X193700000Y-43656832D01*
D28*
X182333381Y-44750017D02*
X178167011Y-44750017D01*
X192350872Y-49400000D02*
X192541414Y-49209458D01*
D29*
X194559569Y-49925856D02*
X194559569Y-50629091D01*
D28*
X178125347Y-47958122D02*
X178125347Y-50582935D01*
X182833345Y-45208318D02*
X178708639Y-45208318D01*
X192139235Y-64262943D02*
X192590592Y-63811586D01*
X193076668Y-50687521D02*
X192989147Y-50600000D01*
X175799262Y-50854730D02*
X175815632Y-50838360D01*
X189281294Y-52241109D02*
X188959815Y-52562588D01*
X192989147Y-50600000D02*
X191568500Y-50600000D01*
X167458382Y-48835971D02*
X162625632Y-48835971D01*
D29*
X192400000Y-39200000D02*
X192400000Y-44000000D01*
D28*
X178167011Y-44750017D02*
X178167011Y-47249839D01*
X165792893Y-58832347D02*
X164359269Y-60265971D01*
X177625383Y-47791467D02*
X177625383Y-50541271D01*
X185483821Y-52562588D02*
X185282897Y-52361664D01*
D29*
X169000000Y-39200000D02*
X169000000Y-44800000D01*
D28*
X190600000Y-53962744D02*
X190542126Y-54020618D01*
X161350687Y-48900719D02*
X161350687Y-52474313D01*
X176583790Y-51582864D02*
X165334592Y-51582864D01*
D29*
X165655632Y-47655632D02*
X166000000Y-48000000D01*
X185900000Y-43505189D02*
X185900000Y-39200000D01*
X181502706Y-48374323D02*
X186951778Y-48374323D01*
D28*
X165917884Y-52041164D02*
X165792893Y-52166155D01*
X187660503Y-51218627D02*
X187390686Y-51488444D01*
D29*
X188500000Y-39200000D02*
X188500000Y-43500000D01*
D28*
X183300000Y-39200000D02*
X183300000Y-43783398D01*
D29*
X159700805Y-49875805D02*
X159825000Y-50000000D01*
D28*
X160022723Y-55802277D02*
X159825000Y-56000000D01*
X191568500Y-49400000D02*
X192350872Y-49400000D01*
X192208674Y-64714300D02*
X192243394Y-64749020D01*
X188431500Y-49400000D02*
X189400000Y-49400000D01*
D29*
X181589803Y-62744218D02*
X181583861Y-62750160D01*
X179121793Y-47565971D02*
X178536478Y-48151286D01*
D28*
X189400000Y-45000000D02*
X189800000Y-44600000D01*
X191005000Y-65570777D02*
X191005000Y-66250000D01*
X190200000Y-51118500D02*
X190200000Y-53633629D01*
D29*
X169000000Y-44800000D02*
X168998988Y-44801012D01*
X159825000Y-52000000D02*
X160401253Y-52000000D01*
X181528050Y-62805971D02*
X181583861Y-62750160D01*
D28*
X177625383Y-50541271D02*
X176583790Y-51582864D01*
X197624385Y-44459797D02*
X197600000Y-44435412D01*
D29*
X172000000Y-64075971D02*
X172055632Y-64020339D01*
X172000000Y-64075971D02*
X162625632Y-64075971D01*
X166971049Y-47341767D02*
X166971049Y-46361388D01*
D28*
X188431500Y-50600000D02*
X188023290Y-50600000D01*
D29*
X170530632Y-58260971D02*
X170530632Y-56735971D01*
D28*
X189257496Y-63950465D02*
X186306317Y-63950465D01*
X190160209Y-53673420D02*
X189813012Y-53673420D01*
X178708639Y-47374830D02*
X178125347Y-47958122D01*
D29*
X161224827Y-60809528D02*
X161224827Y-57964437D01*
X189000000Y-48881500D02*
X189000000Y-45857750D01*
X158175000Y-52000000D02*
X158175000Y-54000000D01*
D28*
X191514280Y-65130937D02*
X191479560Y-65096217D01*
D29*
X173580632Y-58260971D02*
X172055632Y-58260971D01*
D28*
X188431500Y-51000000D02*
X188212873Y-51218627D01*
D29*
X195000000Y-43000000D02*
X195000000Y-39200000D01*
D28*
X164831597Y-58995971D02*
X162625632Y-58995971D01*
X191000000Y-51118500D02*
X191000000Y-54326579D01*
X161000000Y-56000000D02*
X161197723Y-55802277D01*
X184455000Y-65176827D02*
X184455000Y-66250000D01*
D29*
X188500000Y-43500000D02*
X188000000Y-44000000D01*
D28*
X189400000Y-52122403D02*
X189281294Y-52241109D01*
X187824110Y-50200000D02*
X187494878Y-50529232D01*
X188805000Y-66250000D02*
X188805000Y-65195000D01*
D29*
X173580632Y-55210971D02*
X172055632Y-55210971D01*
D28*
X190406262Y-44593738D02*
X190406262Y-44000000D01*
D29*
X173580632Y-56735971D02*
X173580632Y-58260971D01*
X161304775Y-54000000D02*
X161371095Y-53933680D01*
X188431500Y-46036689D02*
X185900000Y-43505189D01*
X178560589Y-50924044D02*
X177041600Y-52443033D01*
D28*
X193076668Y-63985185D02*
X193076668Y-50687521D01*
X191097642Y-64262943D02*
X192139235Y-64262943D01*
D29*
X160850723Y-47050851D02*
X161585603Y-46315971D01*
X186951778Y-48374323D02*
X187482218Y-48904763D01*
X181549624Y-64075971D02*
X181583861Y-64041734D01*
X161371095Y-53933680D02*
X161350687Y-53913272D01*
X180125632Y-61535971D02*
X181589803Y-61535971D01*
X182000000Y-44000000D02*
X182000000Y-43800000D01*
X161345381Y-60881860D02*
X161321270Y-60905971D01*
D28*
X186605000Y-66250000D02*
X186605000Y-64895177D01*
X184600000Y-39200000D02*
X184600000Y-43441663D01*
D29*
X177041600Y-52443033D02*
X166264012Y-52443033D01*
D28*
X187787049Y-50836241D02*
X186349807Y-50836241D01*
X192416994Y-51000000D02*
X191568500Y-51000000D01*
D29*
X158000926Y-44801012D02*
X158000926Y-49825926D01*
X180125632Y-64075971D02*
X172000000Y-64075971D01*
D28*
X161415435Y-48835971D02*
X161350687Y-48900719D01*
%TD*%
M02*
