%TF.GenerationSoftware,KiCad,Pcbnew,7.0.5*%
%TF.CreationDate,2023-07-07T22:00:24-05:00*%
%TF.ProjectId,leapsd,6c656170-7364-42e6-9b69-6361645f7063,rev?*%
%TF.SameCoordinates,Original*%
%TF.FileFunction,Drillmap*%
%TF.FilePolarity,Positive*%
%FSLAX45Y45*%
G04 Gerber Fmt 4.5, Leading zero omitted, Abs format (unit mm)*
G04 Created by KiCad (PCBNEW 7.0.5) date 2023-07-07 22:00:24*
%MOMM*%
%LPD*%
G01*
G04 APERTURE LIST*
%ADD10C,0.050000*%
%ADD11C,0.200000*%
%ADD12C,0.210000*%
G04 APERTURE END LIST*
D10*
X15680000Y-3460000D02*
X15680000Y-3480000D01*
X20060000Y-3460000D02*
X20060000Y-6800000D01*
X15700000Y-6800000D02*
X20060000Y-6800000D01*
X20060000Y-3460000D02*
X15680000Y-3460000D01*
X15680000Y-3480000D02*
X15700000Y-6800000D01*
D11*
D12*
X15835000Y-6455000D02*
X16045000Y-6665000D01*
X16045000Y-6455000D02*
X15835000Y-6665000D01*
X19715000Y-6455000D02*
X19925000Y-6665000D01*
X19925000Y-6455000D02*
X19715000Y-6665000D01*
D11*
X15938277Y-7113984D02*
X15938277Y-6913984D01*
X15938277Y-6913984D02*
X15985896Y-6913984D01*
X15985896Y-6913984D02*
X16014467Y-6923508D01*
X16014467Y-6923508D02*
X16033515Y-6942555D01*
X16033515Y-6942555D02*
X16043039Y-6961603D01*
X16043039Y-6961603D02*
X16052562Y-6999698D01*
X16052562Y-6999698D02*
X16052562Y-7028269D01*
X16052562Y-7028269D02*
X16043039Y-7066365D01*
X16043039Y-7066365D02*
X16033515Y-7085412D01*
X16033515Y-7085412D02*
X16014467Y-7104460D01*
X16014467Y-7104460D02*
X15985896Y-7113984D01*
X15985896Y-7113984D02*
X15938277Y-7113984D01*
X16138277Y-7113984D02*
X16138277Y-6980650D01*
X16138277Y-7018746D02*
X16147801Y-6999698D01*
X16147801Y-6999698D02*
X16157324Y-6990174D01*
X16157324Y-6990174D02*
X16176372Y-6980650D01*
X16176372Y-6980650D02*
X16195420Y-6980650D01*
X16262086Y-7113984D02*
X16262086Y-6980650D01*
X16262086Y-6913984D02*
X16252562Y-6923508D01*
X16252562Y-6923508D02*
X16262086Y-6933031D01*
X16262086Y-6933031D02*
X16271610Y-6923508D01*
X16271610Y-6923508D02*
X16262086Y-6913984D01*
X16262086Y-6913984D02*
X16262086Y-6933031D01*
X16385896Y-7113984D02*
X16366848Y-7104460D01*
X16366848Y-7104460D02*
X16357324Y-7085412D01*
X16357324Y-7085412D02*
X16357324Y-6913984D01*
X16490658Y-7113984D02*
X16471610Y-7104460D01*
X16471610Y-7104460D02*
X16462086Y-7085412D01*
X16462086Y-7085412D02*
X16462086Y-6913984D01*
X16719229Y-7113984D02*
X16719229Y-6913984D01*
X16719229Y-6913984D02*
X16785896Y-7056841D01*
X16785896Y-7056841D02*
X16852563Y-6913984D01*
X16852563Y-6913984D02*
X16852563Y-7113984D01*
X17033515Y-7113984D02*
X17033515Y-7009222D01*
X17033515Y-7009222D02*
X17023991Y-6990174D01*
X17023991Y-6990174D02*
X17004944Y-6980650D01*
X17004944Y-6980650D02*
X16966848Y-6980650D01*
X16966848Y-6980650D02*
X16947801Y-6990174D01*
X17033515Y-7104460D02*
X17014467Y-7113984D01*
X17014467Y-7113984D02*
X16966848Y-7113984D01*
X16966848Y-7113984D02*
X16947801Y-7104460D01*
X16947801Y-7104460D02*
X16938277Y-7085412D01*
X16938277Y-7085412D02*
X16938277Y-7066365D01*
X16938277Y-7066365D02*
X16947801Y-7047317D01*
X16947801Y-7047317D02*
X16966848Y-7037793D01*
X16966848Y-7037793D02*
X17014467Y-7037793D01*
X17014467Y-7037793D02*
X17033515Y-7028269D01*
X17128753Y-6980650D02*
X17128753Y-7180650D01*
X17128753Y-6990174D02*
X17147801Y-6980650D01*
X17147801Y-6980650D02*
X17185896Y-6980650D01*
X17185896Y-6980650D02*
X17204944Y-6990174D01*
X17204944Y-6990174D02*
X17214467Y-6999698D01*
X17214467Y-6999698D02*
X17223991Y-7018746D01*
X17223991Y-7018746D02*
X17223991Y-7075888D01*
X17223991Y-7075888D02*
X17214467Y-7094936D01*
X17214467Y-7094936D02*
X17204944Y-7104460D01*
X17204944Y-7104460D02*
X17185896Y-7113984D01*
X17185896Y-7113984D02*
X17147801Y-7113984D01*
X17147801Y-7113984D02*
X17128753Y-7104460D01*
X17309705Y-7094936D02*
X17319229Y-7104460D01*
X17319229Y-7104460D02*
X17309705Y-7113984D01*
X17309705Y-7113984D02*
X17300182Y-7104460D01*
X17300182Y-7104460D02*
X17309705Y-7094936D01*
X17309705Y-7094936D02*
X17309705Y-7113984D01*
X17309705Y-6990174D02*
X17319229Y-6999698D01*
X17319229Y-6999698D02*
X17309705Y-7009222D01*
X17309705Y-7009222D02*
X17300182Y-6999698D01*
X17300182Y-6999698D02*
X17309705Y-6990174D01*
X17309705Y-6990174D02*
X17309705Y-7009222D01*
X15477500Y-7342500D02*
X15677500Y-7542500D01*
X15677500Y-7342500D02*
X15477500Y-7542500D01*
X15928753Y-7353031D02*
X15938277Y-7343508D01*
X15938277Y-7343508D02*
X15957324Y-7333984D01*
X15957324Y-7333984D02*
X16004943Y-7333984D01*
X16004943Y-7333984D02*
X16023991Y-7343508D01*
X16023991Y-7343508D02*
X16033515Y-7353031D01*
X16033515Y-7353031D02*
X16043039Y-7372079D01*
X16043039Y-7372079D02*
X16043039Y-7391127D01*
X16043039Y-7391127D02*
X16033515Y-7419698D01*
X16033515Y-7419698D02*
X15919229Y-7533984D01*
X15919229Y-7533984D02*
X16043039Y-7533984D01*
X16128753Y-7514936D02*
X16138277Y-7524460D01*
X16138277Y-7524460D02*
X16128753Y-7533984D01*
X16128753Y-7533984D02*
X16119229Y-7524460D01*
X16119229Y-7524460D02*
X16128753Y-7514936D01*
X16128753Y-7514936D02*
X16128753Y-7533984D01*
X16328753Y-7533984D02*
X16214467Y-7533984D01*
X16271610Y-7533984D02*
X16271610Y-7333984D01*
X16271610Y-7333984D02*
X16252562Y-7362555D01*
X16252562Y-7362555D02*
X16233515Y-7381603D01*
X16233515Y-7381603D02*
X16214467Y-7391127D01*
X16452562Y-7333984D02*
X16471610Y-7333984D01*
X16471610Y-7333984D02*
X16490658Y-7343508D01*
X16490658Y-7343508D02*
X16500182Y-7353031D01*
X16500182Y-7353031D02*
X16509705Y-7372079D01*
X16509705Y-7372079D02*
X16519229Y-7410174D01*
X16519229Y-7410174D02*
X16519229Y-7457793D01*
X16519229Y-7457793D02*
X16509705Y-7495888D01*
X16509705Y-7495888D02*
X16500182Y-7514936D01*
X16500182Y-7514936D02*
X16490658Y-7524460D01*
X16490658Y-7524460D02*
X16471610Y-7533984D01*
X16471610Y-7533984D02*
X16452562Y-7533984D01*
X16452562Y-7533984D02*
X16433515Y-7524460D01*
X16433515Y-7524460D02*
X16423991Y-7514936D01*
X16423991Y-7514936D02*
X16414467Y-7495888D01*
X16414467Y-7495888D02*
X16404943Y-7457793D01*
X16404943Y-7457793D02*
X16404943Y-7410174D01*
X16404943Y-7410174D02*
X16414467Y-7372079D01*
X16414467Y-7372079D02*
X16423991Y-7353031D01*
X16423991Y-7353031D02*
X16433515Y-7343508D01*
X16433515Y-7343508D02*
X16452562Y-7333984D01*
X16643039Y-7333984D02*
X16662086Y-7333984D01*
X16662086Y-7333984D02*
X16681134Y-7343508D01*
X16681134Y-7343508D02*
X16690658Y-7353031D01*
X16690658Y-7353031D02*
X16700182Y-7372079D01*
X16700182Y-7372079D02*
X16709705Y-7410174D01*
X16709705Y-7410174D02*
X16709705Y-7457793D01*
X16709705Y-7457793D02*
X16700182Y-7495888D01*
X16700182Y-7495888D02*
X16690658Y-7514936D01*
X16690658Y-7514936D02*
X16681134Y-7524460D01*
X16681134Y-7524460D02*
X16662086Y-7533984D01*
X16662086Y-7533984D02*
X16643039Y-7533984D01*
X16643039Y-7533984D02*
X16623991Y-7524460D01*
X16623991Y-7524460D02*
X16614467Y-7514936D01*
X16614467Y-7514936D02*
X16604943Y-7495888D01*
X16604943Y-7495888D02*
X16595420Y-7457793D01*
X16595420Y-7457793D02*
X16595420Y-7410174D01*
X16595420Y-7410174D02*
X16604943Y-7372079D01*
X16604943Y-7372079D02*
X16614467Y-7353031D01*
X16614467Y-7353031D02*
X16623991Y-7343508D01*
X16623991Y-7343508D02*
X16643039Y-7333984D01*
X16795420Y-7533984D02*
X16795420Y-7400650D01*
X16795420Y-7419698D02*
X16804944Y-7410174D01*
X16804944Y-7410174D02*
X16823991Y-7400650D01*
X16823991Y-7400650D02*
X16852563Y-7400650D01*
X16852563Y-7400650D02*
X16871610Y-7410174D01*
X16871610Y-7410174D02*
X16881134Y-7429222D01*
X16881134Y-7429222D02*
X16881134Y-7533984D01*
X16881134Y-7429222D02*
X16890658Y-7410174D01*
X16890658Y-7410174D02*
X16909705Y-7400650D01*
X16909705Y-7400650D02*
X16938277Y-7400650D01*
X16938277Y-7400650D02*
X16957325Y-7410174D01*
X16957325Y-7410174D02*
X16966848Y-7429222D01*
X16966848Y-7429222D02*
X16966848Y-7533984D01*
X17062086Y-7533984D02*
X17062086Y-7400650D01*
X17062086Y-7419698D02*
X17071610Y-7410174D01*
X17071610Y-7410174D02*
X17090658Y-7400650D01*
X17090658Y-7400650D02*
X17119229Y-7400650D01*
X17119229Y-7400650D02*
X17138277Y-7410174D01*
X17138277Y-7410174D02*
X17147801Y-7429222D01*
X17147801Y-7429222D02*
X17147801Y-7533984D01*
X17147801Y-7429222D02*
X17157325Y-7410174D01*
X17157325Y-7410174D02*
X17176372Y-7400650D01*
X17176372Y-7400650D02*
X17204944Y-7400650D01*
X17204944Y-7400650D02*
X17223991Y-7410174D01*
X17223991Y-7410174D02*
X17233515Y-7429222D01*
X17233515Y-7429222D02*
X17233515Y-7533984D01*
X17623991Y-7324460D02*
X17452563Y-7581603D01*
X17881134Y-7333984D02*
X17900182Y-7333984D01*
X17900182Y-7333984D02*
X17919229Y-7343508D01*
X17919229Y-7343508D02*
X17928753Y-7353031D01*
X17928753Y-7353031D02*
X17938277Y-7372079D01*
X17938277Y-7372079D02*
X17947801Y-7410174D01*
X17947801Y-7410174D02*
X17947801Y-7457793D01*
X17947801Y-7457793D02*
X17938277Y-7495888D01*
X17938277Y-7495888D02*
X17928753Y-7514936D01*
X17928753Y-7514936D02*
X17919229Y-7524460D01*
X17919229Y-7524460D02*
X17900182Y-7533984D01*
X17900182Y-7533984D02*
X17881134Y-7533984D01*
X17881134Y-7533984D02*
X17862087Y-7524460D01*
X17862087Y-7524460D02*
X17852563Y-7514936D01*
X17852563Y-7514936D02*
X17843039Y-7495888D01*
X17843039Y-7495888D02*
X17833515Y-7457793D01*
X17833515Y-7457793D02*
X17833515Y-7410174D01*
X17833515Y-7410174D02*
X17843039Y-7372079D01*
X17843039Y-7372079D02*
X17852563Y-7353031D01*
X17852563Y-7353031D02*
X17862087Y-7343508D01*
X17862087Y-7343508D02*
X17881134Y-7333984D01*
X18033515Y-7514936D02*
X18043039Y-7524460D01*
X18043039Y-7524460D02*
X18033515Y-7533984D01*
X18033515Y-7533984D02*
X18023991Y-7524460D01*
X18023991Y-7524460D02*
X18033515Y-7514936D01*
X18033515Y-7514936D02*
X18033515Y-7533984D01*
X18166848Y-7333984D02*
X18185896Y-7333984D01*
X18185896Y-7333984D02*
X18204944Y-7343508D01*
X18204944Y-7343508D02*
X18214468Y-7353031D01*
X18214468Y-7353031D02*
X18223991Y-7372079D01*
X18223991Y-7372079D02*
X18233515Y-7410174D01*
X18233515Y-7410174D02*
X18233515Y-7457793D01*
X18233515Y-7457793D02*
X18223991Y-7495888D01*
X18223991Y-7495888D02*
X18214468Y-7514936D01*
X18214468Y-7514936D02*
X18204944Y-7524460D01*
X18204944Y-7524460D02*
X18185896Y-7533984D01*
X18185896Y-7533984D02*
X18166848Y-7533984D01*
X18166848Y-7533984D02*
X18147801Y-7524460D01*
X18147801Y-7524460D02*
X18138277Y-7514936D01*
X18138277Y-7514936D02*
X18128753Y-7495888D01*
X18128753Y-7495888D02*
X18119229Y-7457793D01*
X18119229Y-7457793D02*
X18119229Y-7410174D01*
X18119229Y-7410174D02*
X18128753Y-7372079D01*
X18128753Y-7372079D02*
X18138277Y-7353031D01*
X18138277Y-7353031D02*
X18147801Y-7343508D01*
X18147801Y-7343508D02*
X18166848Y-7333984D01*
X18347801Y-7419698D02*
X18328753Y-7410174D01*
X18328753Y-7410174D02*
X18319229Y-7400650D01*
X18319229Y-7400650D02*
X18309706Y-7381603D01*
X18309706Y-7381603D02*
X18309706Y-7372079D01*
X18309706Y-7372079D02*
X18319229Y-7353031D01*
X18319229Y-7353031D02*
X18328753Y-7343508D01*
X18328753Y-7343508D02*
X18347801Y-7333984D01*
X18347801Y-7333984D02*
X18385896Y-7333984D01*
X18385896Y-7333984D02*
X18404944Y-7343508D01*
X18404944Y-7343508D02*
X18414468Y-7353031D01*
X18414468Y-7353031D02*
X18423991Y-7372079D01*
X18423991Y-7372079D02*
X18423991Y-7381603D01*
X18423991Y-7381603D02*
X18414468Y-7400650D01*
X18414468Y-7400650D02*
X18404944Y-7410174D01*
X18404944Y-7410174D02*
X18385896Y-7419698D01*
X18385896Y-7419698D02*
X18347801Y-7419698D01*
X18347801Y-7419698D02*
X18328753Y-7429222D01*
X18328753Y-7429222D02*
X18319229Y-7438746D01*
X18319229Y-7438746D02*
X18309706Y-7457793D01*
X18309706Y-7457793D02*
X18309706Y-7495888D01*
X18309706Y-7495888D02*
X18319229Y-7514936D01*
X18319229Y-7514936D02*
X18328753Y-7524460D01*
X18328753Y-7524460D02*
X18347801Y-7533984D01*
X18347801Y-7533984D02*
X18385896Y-7533984D01*
X18385896Y-7533984D02*
X18404944Y-7524460D01*
X18404944Y-7524460D02*
X18414468Y-7514936D01*
X18414468Y-7514936D02*
X18423991Y-7495888D01*
X18423991Y-7495888D02*
X18423991Y-7457793D01*
X18423991Y-7457793D02*
X18414468Y-7438746D01*
X18414468Y-7438746D02*
X18404944Y-7429222D01*
X18404944Y-7429222D02*
X18385896Y-7419698D01*
X18500182Y-7353031D02*
X18509706Y-7343508D01*
X18509706Y-7343508D02*
X18528753Y-7333984D01*
X18528753Y-7333984D02*
X18576372Y-7333984D01*
X18576372Y-7333984D02*
X18595420Y-7343508D01*
X18595420Y-7343508D02*
X18604944Y-7353031D01*
X18604944Y-7353031D02*
X18614468Y-7372079D01*
X18614468Y-7372079D02*
X18614468Y-7391127D01*
X18614468Y-7391127D02*
X18604944Y-7419698D01*
X18604944Y-7419698D02*
X18490658Y-7533984D01*
X18490658Y-7533984D02*
X18614468Y-7533984D01*
X18681134Y-7333984D02*
X18814468Y-7333984D01*
X18814468Y-7333984D02*
X18728753Y-7533984D01*
X18881134Y-7333984D02*
X18881134Y-7372079D01*
X18957325Y-7333984D02*
X18957325Y-7372079D01*
X19252563Y-7610174D02*
X19243039Y-7600650D01*
X19243039Y-7600650D02*
X19223991Y-7572079D01*
X19223991Y-7572079D02*
X19214468Y-7553031D01*
X19214468Y-7553031D02*
X19204944Y-7524460D01*
X19204944Y-7524460D02*
X19195420Y-7476841D01*
X19195420Y-7476841D02*
X19195420Y-7438746D01*
X19195420Y-7438746D02*
X19204944Y-7391127D01*
X19204944Y-7391127D02*
X19214468Y-7362555D01*
X19214468Y-7362555D02*
X19223991Y-7343508D01*
X19223991Y-7343508D02*
X19243039Y-7314936D01*
X19243039Y-7314936D02*
X19252563Y-7305412D01*
X19319230Y-7353031D02*
X19328753Y-7343508D01*
X19328753Y-7343508D02*
X19347801Y-7333984D01*
X19347801Y-7333984D02*
X19395420Y-7333984D01*
X19395420Y-7333984D02*
X19414468Y-7343508D01*
X19414468Y-7343508D02*
X19423991Y-7353031D01*
X19423991Y-7353031D02*
X19433515Y-7372079D01*
X19433515Y-7372079D02*
X19433515Y-7391127D01*
X19433515Y-7391127D02*
X19423991Y-7419698D01*
X19423991Y-7419698D02*
X19309706Y-7533984D01*
X19309706Y-7533984D02*
X19433515Y-7533984D01*
X19671611Y-7533984D02*
X19671611Y-7333984D01*
X19757325Y-7533984D02*
X19757325Y-7429222D01*
X19757325Y-7429222D02*
X19747801Y-7410174D01*
X19747801Y-7410174D02*
X19728753Y-7400650D01*
X19728753Y-7400650D02*
X19700182Y-7400650D01*
X19700182Y-7400650D02*
X19681134Y-7410174D01*
X19681134Y-7410174D02*
X19671611Y-7419698D01*
X19881134Y-7533984D02*
X19862087Y-7524460D01*
X19862087Y-7524460D02*
X19852563Y-7514936D01*
X19852563Y-7514936D02*
X19843039Y-7495888D01*
X19843039Y-7495888D02*
X19843039Y-7438746D01*
X19843039Y-7438746D02*
X19852563Y-7419698D01*
X19852563Y-7419698D02*
X19862087Y-7410174D01*
X19862087Y-7410174D02*
X19881134Y-7400650D01*
X19881134Y-7400650D02*
X19909706Y-7400650D01*
X19909706Y-7400650D02*
X19928753Y-7410174D01*
X19928753Y-7410174D02*
X19938277Y-7419698D01*
X19938277Y-7419698D02*
X19947801Y-7438746D01*
X19947801Y-7438746D02*
X19947801Y-7495888D01*
X19947801Y-7495888D02*
X19938277Y-7514936D01*
X19938277Y-7514936D02*
X19928753Y-7524460D01*
X19928753Y-7524460D02*
X19909706Y-7533984D01*
X19909706Y-7533984D02*
X19881134Y-7533984D01*
X20062087Y-7533984D02*
X20043039Y-7524460D01*
X20043039Y-7524460D02*
X20033515Y-7505412D01*
X20033515Y-7505412D02*
X20033515Y-7333984D01*
X20214468Y-7524460D02*
X20195420Y-7533984D01*
X20195420Y-7533984D02*
X20157325Y-7533984D01*
X20157325Y-7533984D02*
X20138277Y-7524460D01*
X20138277Y-7524460D02*
X20128753Y-7505412D01*
X20128753Y-7505412D02*
X20128753Y-7429222D01*
X20128753Y-7429222D02*
X20138277Y-7410174D01*
X20138277Y-7410174D02*
X20157325Y-7400650D01*
X20157325Y-7400650D02*
X20195420Y-7400650D01*
X20195420Y-7400650D02*
X20214468Y-7410174D01*
X20214468Y-7410174D02*
X20223992Y-7429222D01*
X20223992Y-7429222D02*
X20223992Y-7448269D01*
X20223992Y-7448269D02*
X20128753Y-7467317D01*
X20300182Y-7524460D02*
X20319230Y-7533984D01*
X20319230Y-7533984D02*
X20357325Y-7533984D01*
X20357325Y-7533984D02*
X20376373Y-7524460D01*
X20376373Y-7524460D02*
X20385896Y-7505412D01*
X20385896Y-7505412D02*
X20385896Y-7495888D01*
X20385896Y-7495888D02*
X20376373Y-7476841D01*
X20376373Y-7476841D02*
X20357325Y-7467317D01*
X20357325Y-7467317D02*
X20328753Y-7467317D01*
X20328753Y-7467317D02*
X20309706Y-7457793D01*
X20309706Y-7457793D02*
X20300182Y-7438746D01*
X20300182Y-7438746D02*
X20300182Y-7429222D01*
X20300182Y-7429222D02*
X20309706Y-7410174D01*
X20309706Y-7410174D02*
X20328753Y-7400650D01*
X20328753Y-7400650D02*
X20357325Y-7400650D01*
X20357325Y-7400650D02*
X20376373Y-7410174D01*
X20452563Y-7610174D02*
X20462087Y-7600650D01*
X20462087Y-7600650D02*
X20481134Y-7572079D01*
X20481134Y-7572079D02*
X20490658Y-7553031D01*
X20490658Y-7553031D02*
X20500182Y-7524460D01*
X20500182Y-7524460D02*
X20509706Y-7476841D01*
X20509706Y-7476841D02*
X20509706Y-7438746D01*
X20509706Y-7438746D02*
X20500182Y-7391127D01*
X20500182Y-7391127D02*
X20490658Y-7362555D01*
X20490658Y-7362555D02*
X20481134Y-7343508D01*
X20481134Y-7343508D02*
X20462087Y-7314936D01*
X20462087Y-7314936D02*
X20452563Y-7305412D01*
X20814468Y-7610174D02*
X20804944Y-7600650D01*
X20804944Y-7600650D02*
X20785896Y-7572079D01*
X20785896Y-7572079D02*
X20776373Y-7553031D01*
X20776373Y-7553031D02*
X20766849Y-7524460D01*
X20766849Y-7524460D02*
X20757325Y-7476841D01*
X20757325Y-7476841D02*
X20757325Y-7438746D01*
X20757325Y-7438746D02*
X20766849Y-7391127D01*
X20766849Y-7391127D02*
X20776373Y-7362555D01*
X20776373Y-7362555D02*
X20785896Y-7343508D01*
X20785896Y-7343508D02*
X20804944Y-7314936D01*
X20804944Y-7314936D02*
X20814468Y-7305412D01*
X20890658Y-7400650D02*
X20890658Y-7533984D01*
X20890658Y-7419698D02*
X20900182Y-7410174D01*
X20900182Y-7410174D02*
X20919230Y-7400650D01*
X20919230Y-7400650D02*
X20947801Y-7400650D01*
X20947801Y-7400650D02*
X20966849Y-7410174D01*
X20966849Y-7410174D02*
X20976373Y-7429222D01*
X20976373Y-7429222D02*
X20976373Y-7533984D01*
X21100182Y-7533984D02*
X21081134Y-7524460D01*
X21081134Y-7524460D02*
X21071611Y-7514936D01*
X21071611Y-7514936D02*
X21062087Y-7495888D01*
X21062087Y-7495888D02*
X21062087Y-7438746D01*
X21062087Y-7438746D02*
X21071611Y-7419698D01*
X21071611Y-7419698D02*
X21081134Y-7410174D01*
X21081134Y-7410174D02*
X21100182Y-7400650D01*
X21100182Y-7400650D02*
X21128754Y-7400650D01*
X21128754Y-7400650D02*
X21147801Y-7410174D01*
X21147801Y-7410174D02*
X21157325Y-7419698D01*
X21157325Y-7419698D02*
X21166849Y-7438746D01*
X21166849Y-7438746D02*
X21166849Y-7495888D01*
X21166849Y-7495888D02*
X21157325Y-7514936D01*
X21157325Y-7514936D02*
X21147801Y-7524460D01*
X21147801Y-7524460D02*
X21128754Y-7533984D01*
X21128754Y-7533984D02*
X21100182Y-7533984D01*
X21223992Y-7400650D02*
X21300182Y-7400650D01*
X21252563Y-7333984D02*
X21252563Y-7505412D01*
X21252563Y-7505412D02*
X21262087Y-7524460D01*
X21262087Y-7524460D02*
X21281134Y-7533984D01*
X21281134Y-7533984D02*
X21300182Y-7533984D01*
X21519230Y-7400650D02*
X21519230Y-7600650D01*
X21519230Y-7410174D02*
X21538277Y-7400650D01*
X21538277Y-7400650D02*
X21576373Y-7400650D01*
X21576373Y-7400650D02*
X21595420Y-7410174D01*
X21595420Y-7410174D02*
X21604944Y-7419698D01*
X21604944Y-7419698D02*
X21614468Y-7438746D01*
X21614468Y-7438746D02*
X21614468Y-7495888D01*
X21614468Y-7495888D02*
X21604944Y-7514936D01*
X21604944Y-7514936D02*
X21595420Y-7524460D01*
X21595420Y-7524460D02*
X21576373Y-7533984D01*
X21576373Y-7533984D02*
X21538277Y-7533984D01*
X21538277Y-7533984D02*
X21519230Y-7524460D01*
X21728754Y-7533984D02*
X21709706Y-7524460D01*
X21709706Y-7524460D02*
X21700182Y-7505412D01*
X21700182Y-7505412D02*
X21700182Y-7333984D01*
X21890658Y-7533984D02*
X21890658Y-7429222D01*
X21890658Y-7429222D02*
X21881135Y-7410174D01*
X21881135Y-7410174D02*
X21862087Y-7400650D01*
X21862087Y-7400650D02*
X21823992Y-7400650D01*
X21823992Y-7400650D02*
X21804944Y-7410174D01*
X21890658Y-7524460D02*
X21871611Y-7533984D01*
X21871611Y-7533984D02*
X21823992Y-7533984D01*
X21823992Y-7533984D02*
X21804944Y-7524460D01*
X21804944Y-7524460D02*
X21795420Y-7505412D01*
X21795420Y-7505412D02*
X21795420Y-7486365D01*
X21795420Y-7486365D02*
X21804944Y-7467317D01*
X21804944Y-7467317D02*
X21823992Y-7457793D01*
X21823992Y-7457793D02*
X21871611Y-7457793D01*
X21871611Y-7457793D02*
X21890658Y-7448269D01*
X21957325Y-7400650D02*
X22033515Y-7400650D01*
X21985896Y-7333984D02*
X21985896Y-7505412D01*
X21985896Y-7505412D02*
X21995420Y-7524460D01*
X21995420Y-7524460D02*
X22014468Y-7533984D01*
X22014468Y-7533984D02*
X22033515Y-7533984D01*
X22176373Y-7524460D02*
X22157325Y-7533984D01*
X22157325Y-7533984D02*
X22119230Y-7533984D01*
X22119230Y-7533984D02*
X22100182Y-7524460D01*
X22100182Y-7524460D02*
X22090658Y-7505412D01*
X22090658Y-7505412D02*
X22090658Y-7429222D01*
X22090658Y-7429222D02*
X22100182Y-7410174D01*
X22100182Y-7410174D02*
X22119230Y-7400650D01*
X22119230Y-7400650D02*
X22157325Y-7400650D01*
X22157325Y-7400650D02*
X22176373Y-7410174D01*
X22176373Y-7410174D02*
X22185896Y-7429222D01*
X22185896Y-7429222D02*
X22185896Y-7448269D01*
X22185896Y-7448269D02*
X22090658Y-7467317D01*
X22357325Y-7533984D02*
X22357325Y-7333984D01*
X22357325Y-7524460D02*
X22338277Y-7533984D01*
X22338277Y-7533984D02*
X22300182Y-7533984D01*
X22300182Y-7533984D02*
X22281135Y-7524460D01*
X22281135Y-7524460D02*
X22271611Y-7514936D01*
X22271611Y-7514936D02*
X22262087Y-7495888D01*
X22262087Y-7495888D02*
X22262087Y-7438746D01*
X22262087Y-7438746D02*
X22271611Y-7419698D01*
X22271611Y-7419698D02*
X22281135Y-7410174D01*
X22281135Y-7410174D02*
X22300182Y-7400650D01*
X22300182Y-7400650D02*
X22338277Y-7400650D01*
X22338277Y-7400650D02*
X22357325Y-7410174D01*
X22433515Y-7610174D02*
X22443039Y-7600650D01*
X22443039Y-7600650D02*
X22462087Y-7572079D01*
X22462087Y-7572079D02*
X22471611Y-7553031D01*
X22471611Y-7553031D02*
X22481134Y-7524460D01*
X22481134Y-7524460D02*
X22490658Y-7476841D01*
X22490658Y-7476841D02*
X22490658Y-7438746D01*
X22490658Y-7438746D02*
X22481134Y-7391127D01*
X22481134Y-7391127D02*
X22471611Y-7362555D01*
X22471611Y-7362555D02*
X22462087Y-7343508D01*
X22462087Y-7343508D02*
X22443039Y-7314936D01*
X22443039Y-7314936D02*
X22433515Y-7305412D01*
M02*
